<svg width="113" height="28" viewBox="0 0 113 28" fill="none" xmlns="http://www.w3.org/2000/svg">
  <path d="M0.738459 27.3672H6.27397V18.8786H10.9274C16.9487 18.8786 20.4515 15.2862 20.4515 10.0575C20.4515 4.8544 17.0126 1.18537 11.068 1.18537H0.738459V27.3672ZM6.27397 14.4425V5.71094H10.0069C13.2029 5.71094 14.7498 7.44957 14.7498 10.0575C14.7498 12.6527 13.2029 14.4425 10.0325 14.4425H6.27397ZM52.2072 27.3672H68.9672V22.8033H57.7427V1.18537H52.2072V27.3672ZM72.633 27.3672H89.3929V22.8033H78.1685V1.18537H72.633V27.3672ZM88.1848 1.18537L97.7346 18.1115V27.3672H103.232V18.1115L112.781 1.18537H106.581L100.611 12.4609H100.355L94.3851 1.18537H88.1848Z" fill="#284E7F"/>
  <path d="M48.1067 14.2763C48.1067 5.71094 42.7885 0.827414 35.8468 0.827414C28.8667 0.827414 23.5868 5.71094 23.5868 14.2763C23.5868 22.8033 28.8667 27.7251 35.8468 27.7251C42.7885 27.7251 48.1067 22.8416 48.1067 14.2763ZM42.4945 14.2763C42.4945 19.8246 39.861 22.8288 35.8468 22.8288C31.8198 22.8288 29.199 19.8246 29.199 14.2763C29.199 8.72798 31.8198 5.72372 35.8468 5.72372C39.861 5.72372 42.4945 8.72798 42.4945 14.2763Z" fill="#FD5749"/>
</svg>