<svg width="88" height="61" viewBox="0 0 88 61" fill="none" xmlns="http://www.w3.org/2000/svg">
<rect x="0.5" y="0.5" width="87" height="59.0144" fill="white" stroke="black"/>
<mask id="path-2-inside-1_398_109" fill="white">
<path fill-rule="evenodd" clip-rule="evenodd" d="M57.8564 31.75L44 16L30.1436 31.75H33V41H55V31.75H57.8564Z"/>
</mask>
<path fill-rule="evenodd" clip-rule="evenodd" d="M57.8564 31.75L44 16L30.1436 31.75H33V41H55V31.75H57.8564Z" fill="white"/>
<path d="M44 16L44.7508 15.3395L44 14.4861L43.2492 15.3395L44 16ZM57.8564 31.75V32.75H60.0681L58.6072 31.0895L57.8564 31.75ZM30.1436 31.75L29.3928 31.0895L27.9319 32.75H30.1436V31.75ZM33 31.75H34V30.75H33V31.75ZM33 41H32V42H33V41ZM55 41V42H56V41H55ZM55 31.75V30.75H54V31.75H55ZM43.2492 16.6605L57.1056 32.4105L58.6072 31.0895L44.7508 15.3395L43.2492 16.6605ZM30.8944 32.4105L44.7508 16.6605L43.2492 15.3395L29.3928 31.0895L30.8944 32.4105ZM33 30.75H30.1436V32.75H33V30.75ZM34 41V31.75H32V41H34ZM55 40H33V42H55V40ZM54 31.75V41H56V31.75H54ZM57.8564 30.75H55V32.75H57.8564V30.75Z" fill="black" mask="url(#path-2-inside-1_398_109)"/>
</svg>
