<svg width="18" height="18" viewBox="0 0 18 18" fill="none" xmlns="http://www.w3.org/2000/svg">
<path d="M16.7655 1.10474H0.860474V16.9396H16.7655V1.10474Z" stroke="white" stroke-linecap="round" stroke-linejoin="round"/>
<path d="M6.73047 12.2832V5.28125H8.72266C9.32812 5.28125 9.80827 5.42936 10.1631 5.72559C10.5179 6.02181 10.6953 6.40755 10.6953 6.88281C10.6953 7.27995 10.5879 7.625 10.373 7.91797C10.1582 8.21094 9.86198 8.41927 9.48438 8.54297V8.5625C9.95638 8.61784 10.334 8.79688 10.6172 9.09961C10.9004 9.39909 11.042 9.78971 11.042 10.2715C11.042 10.8704 10.8271 11.3555 10.3975 11.7266C9.96777 12.0977 9.42578 12.2832 8.77148 12.2832H6.73047ZM7.55078 6.02344V8.28418H8.39062C8.83984 8.28418 9.19303 8.17676 9.4502 7.96191C9.70736 7.74382 9.83594 7.43783 9.83594 7.04395C9.83594 6.36361 9.38835 6.02344 8.49316 6.02344H7.55078ZM7.55078 9.02148V11.541H8.66406C9.14583 11.541 9.51855 11.4271 9.78223 11.1992C10.0492 10.9714 10.1826 10.6589 10.1826 10.2617C10.1826 9.4349 9.61947 9.02148 8.49316 9.02148H7.55078Z" fill="white"/>
</svg>
