<svg width="211" height="103" viewBox="0 0 211 103" fill="none" xmlns="http://www.w3.org/2000/svg">
<rect x="1.15" y="0.15" width="95.7" height="102.7" rx="1.85" fill="black" stroke="white" stroke-width="0.3"/>
<rect x="71.25" y="7.25" width="14.5" height="14.5" rx="2.25" fill="#C4C4C4" fill-opacity="0.06" stroke="white" stroke-width="0.5"/>
<circle cx="74.5" cy="13.5" r="1.35" fill="black" stroke="white" stroke-width="0.3"/>
<line x1="72.9019" y1="21.9226" x2="78.3516" y2="15.014" stroke="white" stroke-width="0.25"/>
<path d="M78.291 15L85.7921 20.4311" stroke="white" stroke-width="0.25"/>
<path d="M14.76 18.05C14.2667 18.05 13.8167 17.95 13.41 17.75C13.0033 17.5433 12.6533 17.27 12.36 16.93C12.0667 16.59 11.84 16.2067 11.68 15.78C11.52 15.3467 11.44 14.9033 11.44 14.45C11.44 13.9767 11.5233 13.5267 11.69 13.1C11.8567 12.6667 12.09 12.2833 12.39 11.95C12.6967 11.61 13.05 11.3433 13.45 11.15C13.8567 10.95 14.2967 10.85 14.77 10.85C15.2633 10.85 15.7133 10.9533 16.12 11.16C16.5267 11.3667 16.8767 11.6433 17.17 11.99C17.4633 12.3367 17.69 12.7233 17.85 13.15C18.01 13.5767 18.09 14.01 18.09 14.45C18.09 14.93 18.0033 15.3867 17.83 15.82C17.6633 16.2467 17.43 16.63 17.13 16.97C16.83 17.3033 16.4767 17.5667 16.07 17.76C15.67 17.9533 15.2333 18.05 14.76 18.05ZM11.95 14.45C11.95 14.8567 12.0167 15.2467 12.15 15.62C12.29 15.9933 12.4867 16.33 12.74 16.63C12.9933 16.9233 13.29 17.1567 13.63 17.33C13.9767 17.4967 14.3567 17.58 14.77 17.58C15.1967 17.58 15.58 17.49 15.92 17.31C16.2667 17.13 16.5633 16.89 16.81 16.59C17.0567 16.29 17.2433 15.9567 17.37 15.59C17.5033 15.2167 17.57 14.8367 17.57 14.45C17.57 14.0433 17.5 13.6533 17.36 13.28C17.2267 12.9067 17.0333 12.5733 16.78 12.28C16.5267 11.9867 16.2267 11.7533 15.88 11.58C15.54 11.4067 15.17 11.32 14.77 11.32C14.3433 11.32 13.9567 11.41 13.61 11.59C13.2633 11.77 12.9667 12.01 12.72 12.31C12.4733 12.61 12.2833 12.9467 12.15 13.32C12.0167 13.6867 11.95 14.0633 11.95 14.45ZM21.7498 13.25C21.2831 13.2633 20.8731 13.4033 20.5198 13.67C20.1731 13.93 19.9298 14.29 19.7898 14.75V18H19.2898V12.8H19.7698V14.08C19.9498 13.72 20.1898 13.4233 20.4898 13.19C20.7898 12.9567 21.1064 12.8233 21.4398 12.79C21.5064 12.79 21.5631 12.79 21.6098 12.79C21.6631 12.7833 21.7098 12.78 21.7498 12.78V13.25ZM22.698 11.62V10.7H23.198V11.62H22.698ZM22.698 18V12.8H23.198V18H22.698ZM26.8683 18.08C26.5149 18.08 26.1883 18.0067 25.8883 17.86C25.5883 17.7133 25.3283 17.5133 25.1083 17.26C24.8883 17.0067 24.7149 16.72 24.5883 16.4C24.4683 16.08 24.4083 15.75 24.4083 15.41C24.4083 14.9367 24.5116 14.4967 24.7183 14.09C24.9249 13.6767 25.2083 13.3433 25.5683 13.09C25.9349 12.8367 26.3549 12.71 26.8283 12.71C27.2816 12.71 27.6749 12.83 28.0083 13.07C28.3483 13.3033 28.6349 13.59 28.8683 13.93V12.8H29.3283V18.1C29.3283 18.5733 29.2149 18.9667 28.9883 19.28C28.7616 19.5933 28.4616 19.83 28.0883 19.99C27.7149 20.15 27.3116 20.23 26.8783 20.23C26.2716 20.23 25.7883 20.12 25.4283 19.9C25.0749 19.68 24.7883 19.39 24.5683 19.03L24.9083 18.8C25.1149 19.1533 25.3949 19.41 25.7483 19.57C26.1016 19.7367 26.4783 19.82 26.8783 19.82C27.2316 19.82 27.5549 19.7533 27.8483 19.62C28.1483 19.4933 28.3849 19.3033 28.5583 19.05C28.7383 18.7967 28.8283 18.48 28.8283 18.1V16.96C28.6216 17.3 28.3383 17.5733 27.9783 17.78C27.6249 17.98 27.2549 18.08 26.8683 18.08ZM26.9883 17.65C27.2816 17.65 27.5616 17.58 27.8283 17.44C28.1016 17.3 28.3283 17.1233 28.5083 16.91C28.6883 16.6967 28.7949 16.4767 28.8283 16.25V14.54C28.7283 14.2733 28.5783 14.0367 28.3783 13.83C28.1783 13.6233 27.9483 13.46 27.6883 13.34C27.4349 13.22 27.1749 13.16 26.9083 13.16C26.4883 13.16 26.1283 13.2733 25.8283 13.5C25.5349 13.7267 25.3083 14.0133 25.1483 14.36C24.9949 14.7067 24.9183 15.06 24.9183 15.42C24.9183 15.8133 25.0083 16.18 25.1883 16.52C25.3749 16.86 25.6249 17.1333 25.9383 17.34C26.2583 17.5467 26.6083 17.65 26.9883 17.65ZM30.8913 11.62V10.7H31.3913V11.62H30.8913ZM30.8913 18V12.8H31.3913V18H30.8913ZM37.2116 18H36.7116V15.1C36.7116 14.4333 36.615 13.9467 36.4216 13.64C36.2283 13.3267 35.9283 13.17 35.5216 13.17C35.2283 13.17 34.9416 13.24 34.6616 13.38C34.3816 13.52 34.135 13.7133 33.9216 13.96C33.7083 14.2 33.555 14.4733 33.4616 14.78V18H32.9616V12.8H33.4316V14.04C33.6383 13.6467 33.945 13.3267 34.3516 13.08C34.765 12.8333 35.2016 12.71 35.6616 12.71C36.2283 12.71 36.6283 12.91 36.8616 13.31C37.095 13.71 37.2116 14.2767 37.2116 15.01V18ZM38.2934 16.5C38.2934 16.1933 38.3834 15.9233 38.5634 15.69C38.75 15.4567 39.0067 15.2767 39.3334 15.15C39.6667 15.0167 40.0467 14.95 40.4734 14.95C40.74 14.95 41.0167 14.9733 41.3034 15.02C41.5967 15.0667 41.8534 15.13 42.0734 15.21V14.72C42.0734 14.24 41.9334 13.8567 41.6534 13.57C41.3734 13.2833 40.9934 13.14 40.5134 13.14C40.2534 13.14 39.9834 13.1933 39.7034 13.3C39.4234 13.4067 39.1367 13.56 38.8434 13.76L38.6334 13.4C39.3134 12.94 39.9567 12.71 40.5634 12.71C41.1767 12.71 41.6634 12.8933 42.0234 13.26C42.39 13.6267 42.5734 14.1267 42.5734 14.76V17.34C42.5734 17.5 42.6467 17.5833 42.7934 17.59V18C42.6667 18.0133 42.5834 18.0167 42.5434 18.01C42.4167 17.9967 42.3167 17.9433 42.2434 17.85C42.1767 17.7567 42.14 17.66 42.1334 17.56V17.15C41.8934 17.45 41.5834 17.6833 41.2034 17.85C40.83 18.0167 40.4367 18.1 40.0234 18.1C39.6967 18.1 39.4 18.03 39.1334 17.89C38.8734 17.7433 38.6667 17.55 38.5134 17.31C38.3667 17.07 38.2934 16.8 38.2934 16.5ZM41.8734 16.93C42.0067 16.7633 42.0734 16.6067 42.0734 16.46V15.6C41.5934 15.4133 41.0767 15.32 40.5234 15.32C39.9967 15.32 39.5734 15.4267 39.2534 15.64C38.9334 15.8467 38.7734 16.1233 38.7734 16.47C38.7734 16.69 38.83 16.8933 38.9434 17.08C39.0567 17.2667 39.2134 17.4167 39.4134 17.53C39.62 17.6433 39.8567 17.7 40.1234 17.7C40.4967 17.7 40.84 17.63 41.1534 17.49C41.4667 17.3433 41.7067 17.1567 41.8734 16.93ZM44.1345 10.7H44.6445V16.97C44.6445 17.21 44.6945 17.3767 44.7945 17.47C44.8945 17.5567 45.0245 17.6 45.1845 17.6C45.2911 17.6 45.4011 17.59 45.5145 17.57C45.6278 17.55 45.7278 17.5233 45.8145 17.49L45.9145 17.9C45.8011 17.94 45.6611 17.9767 45.4945 18.01C45.3278 18.0433 45.1845 18.06 45.0645 18.06C44.7845 18.06 44.5578 17.9767 44.3845 17.81C44.2178 17.6367 44.1345 17.4067 44.1345 17.12V10.7Z" fill="white"/>
<path d="M0 28H97" stroke="white" stroke-width="0.3"/>
<path d="M15.87 93.54V94H12.68V93.54H14.1V88.92C14.02 89.0267 13.8833 89.1433 13.69 89.27C13.4967 89.3967 13.2867 89.5067 13.06 89.6C12.8333 89.6933 12.63 89.74 12.45 89.74V89.24C12.6167 89.24 12.7933 89.1967 12.98 89.11C13.1667 89.0233 13.34 88.92 13.5 88.8C13.6667 88.68 13.8033 88.57 13.91 88.47C14.0233 88.37 14.0867 88.31 14.1 88.29H14.6V93.54H15.87ZM21.642 91.67C21.642 92.1167 21.532 92.5267 21.312 92.9C21.092 93.2667 20.792 93.56 20.412 93.78C20.0387 93.9933 19.6187 94.1 19.152 94.1C18.6654 94.1 18.2287 93.9833 17.842 93.75C17.462 93.5167 17.162 93.1867 16.942 92.76C16.7287 92.3267 16.622 91.81 16.622 91.21C16.622 90.2167 16.7287 89.4 16.942 88.76C17.162 88.1133 17.4654 87.6333 17.852 87.32C18.2387 87.0067 18.6887 86.85 19.202 86.85C19.6754 86.85 20.0987 86.9733 20.472 87.22C20.8454 87.4667 21.122 87.8033 21.302 88.23L20.952 88.5C20.8187 88.14 20.592 87.85 20.272 87.63C19.952 87.41 19.5954 87.3 19.202 87.3C18.5754 87.3 18.0687 87.5967 17.682 88.19C17.302 88.7833 17.112 89.6167 17.112 90.69C17.2587 90.2633 17.5254 89.9167 17.912 89.65C18.2987 89.3833 18.732 89.25 19.212 89.25C19.6654 89.25 20.0754 89.36 20.442 89.58C20.8087 89.7933 21.0987 90.0833 21.312 90.45C21.532 90.8167 21.642 91.2233 21.642 91.67ZM19.162 93.65C19.5287 93.65 19.862 93.5633 20.162 93.39C20.4687 93.21 20.712 92.97 20.892 92.67C21.072 92.37 21.162 92.0367 21.162 91.67C21.162 91.31 21.0687 90.98 20.882 90.68C20.702 90.3733 20.4587 90.13 20.152 89.95C19.852 89.77 19.522 89.68 19.162 89.68C18.7954 89.68 18.4587 89.77 18.152 89.95C17.852 90.13 17.612 90.3733 17.432 90.68C17.252 90.98 17.162 91.31 17.162 91.67C17.162 92.03 17.252 92.36 17.432 92.66C17.612 92.96 17.8554 93.2 18.162 93.38C18.4687 93.56 18.802 93.65 19.162 93.65ZM25.3165 89.68V88.83H25.7465V89.68H25.3165ZM25.3165 94V93.15H25.7465V94H25.3165ZM29.3524 90.72C29.3524 90.2733 29.4624 89.8667 29.6824 89.5C29.9024 89.1267 30.1991 88.8333 30.5724 88.62C30.9524 88.4 31.3758 88.29 31.8424 88.29C32.3291 88.29 32.7624 88.4067 33.1424 88.64C33.5291 88.8733 33.8291 89.2067 34.0424 89.64C34.2624 90.0667 34.3724 90.58 34.3724 91.18C34.3724 92.1733 34.2624 92.9933 34.0424 93.64C33.8291 94.28 33.5291 94.7567 33.1424 95.07C32.7558 95.3833 32.3058 95.54 31.7924 95.54C31.3191 95.54 30.8958 95.4167 30.5224 95.17C30.1491 94.9233 29.8724 94.5867 29.6924 94.16L30.0424 93.89C30.1758 94.25 30.4024 94.54 30.7224 94.76C31.0424 94.98 31.3991 95.09 31.7924 95.09C32.4191 95.09 32.9224 94.7933 33.3024 94.2C33.6891 93.6067 33.8824 92.7733 33.8824 91.7C33.7358 92.1267 33.4691 92.4733 33.0824 92.74C32.6958 93.0067 32.2624 93.14 31.7824 93.14C31.3291 93.14 30.9191 93.0333 30.5524 92.82C30.1858 92.6 29.8924 92.3067 29.6724 91.94C29.4591 91.5733 29.3524 91.1667 29.3524 90.72ZM31.8324 88.74C31.4658 88.74 31.1291 88.83 30.8224 89.01C30.5224 89.1833 30.2824 89.42 30.1024 89.72C29.9224 90.02 29.8324 90.3533 29.8324 90.72C29.8324 91.08 29.9224 91.4133 30.1024 91.72C30.2891 92.02 30.5324 92.26 30.8324 92.44C31.1391 92.62 31.4724 92.71 31.8324 92.71C32.1991 92.71 32.5324 92.62 32.8324 92.44C33.1391 92.26 33.3824 92.02 33.5624 91.72C33.7424 91.4133 33.8324 91.08 33.8324 90.72C33.8324 90.36 33.7424 90.03 33.5624 89.73C33.3824 89.43 33.1391 89.19 32.8324 89.01C32.5258 88.83 32.1924 88.74 31.8324 88.74Z" fill="white"/>
<rect x="72.25" y="95.75" width="9.5" height="13.5" rx="2.25" transform="rotate(-90 72.25 95.75)" fill="#030303" stroke="white" stroke-width="0.5"/>
<path d="M1 79L97.0003 79.9697" stroke="white" stroke-width="0.3"/>
<path d="M15.67 70.27V68.41H12.21V67.97L15.82 63.29H16.17V67.95H17.05V68.41H16.17V70.27H15.67ZM12.77 67.95H15.71V64.1L12.77 67.95ZM20.5997 64.68V63.83H21.0297V64.68H20.5997ZM20.5997 69V68.15H21.0297V69H20.5997ZM26.8956 70.49C26.389 70.49 25.9323 70.36 25.5256 70.1C25.1256 69.8467 24.8256 69.51 24.6256 69.09L24.9956 68.88C25.1756 69.2267 25.4356 69.5033 25.7756 69.71C26.1156 69.9233 26.489 70.03 26.8956 70.03C27.249 70.03 27.569 69.95 27.8556 69.79C28.149 69.6367 28.379 69.4167 28.5456 69.13C28.719 68.85 28.8056 68.5267 28.8056 68.16C28.8056 67.8067 28.7223 67.4967 28.5556 67.23C28.389 66.9567 28.1656 66.7433 27.8856 66.59C27.6123 66.4367 27.3023 66.36 26.9556 66.36C26.6223 66.36 26.3023 66.4367 25.9956 66.59C25.6956 66.7367 25.449 66.95 25.2556 67.23H24.7756L25.5656 63.29H28.9656V63.76H25.9456L25.3856 66.57C25.5856 66.3567 25.8256 66.1933 26.1056 66.08C26.3856 65.96 26.6856 65.9 27.0056 65.9C27.4323 65.9 27.819 65.9967 28.1656 66.19C28.519 66.3833 28.799 66.65 29.0056 66.99C29.2123 67.3233 29.3156 67.7133 29.3156 68.16C29.3156 68.6267 29.2023 69.0333 28.9756 69.38C28.7556 69.7333 28.4623 70.0067 28.0956 70.2C27.729 70.3933 27.329 70.49 26.8956 70.49Z" fill="white"/>
<rect x="74.25" y="60.25" width="9.5" height="13.5" rx="2.25" fill="#030303" stroke="white" stroke-width="0.5"/>
<path d="M1 53L97.0003 53.9697" stroke="white" stroke-width="0.3"/>
<path d="M15.87 43.54V44H12.68V43.54H14.1V38.92C14.02 39.0267 13.8833 39.1433 13.69 39.27C13.4967 39.3967 13.2867 39.5067 13.06 39.6C12.8333 39.6933 12.63 39.74 12.45 39.74V39.24C12.6167 39.24 12.7933 39.1967 12.98 39.11C13.1667 39.0233 13.34 38.92 13.5 38.8C13.6667 38.68 13.8033 38.57 13.91 38.47C14.0233 38.37 14.0867 38.31 14.1 38.29H14.6V43.54H15.87ZM19.3204 39.68V38.83H19.7504V39.68H19.3204ZM19.3204 44V43.15H19.7504V44H19.3204ZM26.8563 43.54V44H23.6663V43.54H25.0863V38.92C25.0063 39.0267 24.8697 39.1433 24.6763 39.27C24.483 39.3967 24.273 39.5067 24.0463 39.6C23.8197 39.6933 23.6163 39.74 23.4363 39.74V39.24C23.603 39.24 23.7797 39.1967 23.9663 39.11C24.153 39.0233 24.3263 38.92 24.4863 38.8C24.653 38.68 24.7897 38.57 24.8963 38.47C25.0097 38.37 25.073 38.31 25.0863 38.29H25.5863V43.54H26.8563Z" fill="white"/>
<rect x="72.25" y="34.25" width="13.5" height="13.5" rx="2.25" fill="#030303" stroke="white" stroke-width="0.5"/>
</svg>
