<svg width="18" height="18" viewBox="0 0 18 18" fill="none" xmlns="http://www.w3.org/2000/svg">
<path d="M16.7644 1.10474H0.859375V16.9396H16.7644V1.10474Z" stroke="white" stroke-linecap="round" stroke-linejoin="round"/>
<path d="M9.1543 13.3013L9.08984 13.5181H5.82031L5.90234 13.3013C6.23047 13.2935 6.44727 13.2661 6.55273 13.2192C6.72461 13.1528 6.85156 13.061 6.93359 12.9438C7.0625 12.7603 7.19531 12.4321 7.33203 11.9595L8.71484 7.1665C8.83203 6.76807 8.89062 6.46729 8.89062 6.26416C8.89062 6.1626 8.86523 6.07666 8.81445 6.00635C8.76367 5.93604 8.68555 5.8833 8.58008 5.84814C8.47852 5.80908 8.27734 5.78955 7.97656 5.78955L8.04688 5.57275H11.1172L11.0527 5.78955C10.8027 5.78564 10.6172 5.81299 10.4961 5.87158C10.3203 5.94971 10.1855 6.06104 10.0918 6.20557C10.002 6.3501 9.88477 6.67041 9.74023 7.1665L8.36328 11.9595C8.23828 12.4009 8.17578 12.6821 8.17578 12.8032C8.17578 12.9009 8.19922 12.9849 8.24609 13.0552C8.29688 13.1216 8.375 13.1743 8.48047 13.2134C8.58984 13.2485 8.81445 13.2778 9.1543 13.3013Z" fill="white"/>
</svg>
