<svg width="15" height="14" viewBox="0 0 15 14" fill="none" xmlns="http://www.w3.org/2000/svg">
<path d="M11.3826 10.1724L14.238 13.0271L13.2946 13.9704L10.44 11.1151C9.3778 11.9666 8.05665 12.4297 6.69531 12.4277C3.38331 12.4277 0.695312 9.73974 0.695312 6.42774C0.695312 3.11574 3.38331 0.427734 6.69531 0.427734C10.0073 0.427734 12.6953 3.11574 12.6953 6.42774C12.6972 7.78907 12.2341 9.11023 11.3826 10.1724ZM10.0453 9.67774C10.8914 8.80766 11.3639 7.64136 11.362 6.42774C11.362 3.84907 9.27331 1.76107 6.69531 1.76107C4.11665 1.76107 2.02865 3.84907 2.02865 6.42774C2.02865 9.00574 4.11665 11.0944 6.69531 11.0944C7.90893 11.0963 9.07524 10.6238 9.94531 9.77774L10.0453 9.67774Z" fill="black"/>
</svg>
