
<svg width="56" height="48" viewBox="0 0 56 48" fill="none" xmlns="http://www.w3.org/2000/svg">
<path d="M5.96842 38.5353H4.24849C3.34528 38.5336 2.47967 38.1735 1.84182 37.534C1.20397 36.8945 0.846049 36.028 0.846681 35.1248V6.80464C0.846679 5.90184 1.20488 5.03592 1.84266 4.39695C2.48044 3.75798 3.34569 3.39816 4.24849 3.39648H44.578C45.4819 3.39648 46.3488 3.75556 46.9879 4.39471C47.6271 5.03386 47.9862 5.90074 47.9862 6.80464V8.07279" fill="#EEEFEE"/>
<path d="M5.96823 38.9314H4.2483C3.2404 38.9297 2.27435 38.5282 1.56225 37.8149C0.850148 37.1016 0.450194 36.1349 0.450195 35.127V6.80445C0.450194 5.79654 0.850148 4.82983 1.56225 4.11654C2.27435 3.40325 3.2404 3.00168 4.2483 3H44.5778C45.5863 3.00168 46.553 3.40304 47.2661 4.11615C47.9792 4.82926 48.3806 5.79596 48.3823 6.80445V8.0726C48.3823 8.1777 48.3405 8.2785 48.2662 8.35282C48.1919 8.42714 48.0911 8.46889 47.986 8.46889C47.8809 8.46889 47.7801 8.42714 47.7058 8.35282C47.6314 8.2785 47.5897 8.1777 47.5897 8.0726V6.80445C47.5884 6.00604 47.2707 5.24069 46.7061 4.67613C46.1416 4.11157 45.3762 3.79385 44.5778 3.79259H4.2483C3.45061 3.79427 2.68616 4.11233 2.1227 4.67698C1.55924 5.24163 1.24279 6.00675 1.24279 6.80445V35.1246C1.24279 35.9223 1.55924 36.6874 2.1227 37.2521C2.68616 37.8167 3.45061 38.1348 4.2483 38.1365H5.96823C6.07333 38.1365 6.17413 38.1782 6.24845 38.2525C6.32277 38.3269 6.36453 38.4276 6.36453 38.5327C6.36453 38.6379 6.32277 38.7387 6.24845 38.813C6.17413 38.8873 6.07333 38.929 5.96823 38.929V38.9314Z" fill="#323C6B"/>
<path d="M54.743 37.5712V41.4549C54.7425 41.9005 54.6542 42.3416 54.4832 42.7531C54.3122 43.1646 54.0618 43.5383 53.7464 43.853C53.4309 44.1677 53.0566 44.4172 52.6447 44.5873C52.2329 44.7573 51.7915 44.8446 51.3459 44.844H9.36385C8.4645 44.8451 7.60151 44.489 6.96453 43.8541C6.32755 43.2192 5.96869 42.3574 5.9668 41.4581V34.404L20.6615 17.6533L34.1562 34.0513L43.5143 23.6065L54.743 37.5712Z" fill="#EEEFEE"/>
<path d="M51.3457 45.242H9.36366C8.35911 45.242 7.39558 44.8435 6.68444 44.134C5.9733 43.4245 5.57262 42.4619 5.57031 41.4573V34.4033C5.57023 34.307 5.60517 34.2141 5.66859 34.1417L20.3593 17.3918C20.3972 17.3486 20.444 17.3142 20.4966 17.2909C20.5491 17.2676 20.606 17.256 20.6635 17.2569C20.7209 17.2578 20.7775 17.2712 20.8293 17.2961C20.881 17.3211 20.9268 17.357 20.9633 17.4013L34.1687 33.4426L43.2193 23.3418C43.257 23.2981 43.3041 23.2634 43.3571 23.2405C43.41 23.2176 43.4675 23.207 43.5252 23.2095C43.5827 23.2111 43.6391 23.2252 43.6906 23.2508C43.742 23.2764 43.7873 23.3128 43.8232 23.3577L55.0519 37.3216C55.1084 37.3919 55.1391 37.4795 55.1391 37.5697V41.4534C55.1378 42.4586 54.7376 43.4222 54.0264 44.1326C53.3151 44.843 52.351 45.242 51.3457 45.242ZM6.36291 34.5507V41.4573C6.365 42.2517 6.68211 43.0129 7.24465 43.5738C7.8072 44.1347 8.56926 44.4496 9.36366 44.4494H51.3457C52.1402 44.4496 52.9022 44.1347 53.4648 43.5738C54.0273 43.0129 54.3444 42.2517 54.3465 41.4573V37.71L43.4983 24.2184L34.4524 34.3145C34.4151 34.3581 34.3684 34.3927 34.3159 34.4156C34.2633 34.4385 34.2062 34.4492 34.1489 34.4468C34.0917 34.4457 34.0355 34.4322 33.9841 34.4073C33.9326 34.3824 33.8872 34.3467 33.8508 34.3026L20.6478 18.2645L6.36291 34.5507Z" fill="#323C6B"/>
<path d="M54.743 37.5712V41.4549C54.7425 41.9005 54.6542 42.3416 54.4832 42.7531C54.3122 43.1646 54.0618 43.5383 53.7464 43.853C53.4309 44.1677 53.0566 44.4172 52.6447 44.5873C52.2329 44.7573 51.7915 44.8446 51.3459 44.844H9.36385C8.4645 44.8451 7.60151 44.489 6.96453 43.8541C6.32755 43.2192 5.96869 42.3574 5.9668 41.4581V34.404L20.6615 17.6533L34.1562 34.0513L43.5143 23.6065L54.743 37.5712Z" fill="#9297AB"/>
<path d="M54.743 37.5704V41.4541C54.7415 42.3547 54.3826 43.2179 53.745 43.854C53.1074 44.4901 52.2434 44.847 51.3428 44.8464H9.36705C8.62966 44.8474 7.91202 44.6081 7.3228 44.1648C6.73358 43.7214 6.30486 43.0982 6.10156 42.3894C6.59475 42.6597 7.1481 42.8015 7.71053 42.8015H49.6942C50.5948 42.8021 51.4588 42.4452 52.0964 41.8091C52.734 41.173 53.0929 40.3098 53.0944 39.4092V35.5176L54.743 37.5704Z" fill="#84879C"/>
<path d="M54.743 11.4713V37.5706L43.5143 23.6059L34.1562 34.0507L20.6615 17.6527L5.9668 34.4018V11.4713C5.96649 11.0251 6.05414 10.5832 6.22475 10.1709C6.39535 9.75862 6.64557 9.38401 6.96107 9.0685C7.27658 8.75299 7.6512 8.50278 8.06349 8.33217C8.47578 8.16156 8.91766 8.07391 9.36385 8.07422H51.3459C51.7921 8.07391 52.234 8.16156 52.6463 8.33217C53.0586 8.50278 53.4332 8.75299 53.7487 9.0685C54.0642 9.38401 54.3144 9.75862 54.4851 10.1709C54.6557 10.5832 54.7433 11.0251 54.743 11.4713Z" fill="#EEEFEE"/>
<path d="M54.7426 11.4705V37.5706L52.8245 35.1849V13.7849C52.8255 13.3388 52.7384 12.8969 52.5684 12.4844C52.3983 12.072 52.1486 11.6971 51.8335 11.3813C51.5184 11.0655 51.1442 10.8149 50.7321 10.6439C50.3201 10.4729 49.8784 10.3848 49.4322 10.3847H7.44856C6.9696 10.381 6.49581 10.4838 6.06152 10.6859C6.23685 9.94111 6.65874 9.27748 7.25872 8.80268C7.85869 8.32788 8.60152 8.06979 9.36664 8.07031H51.3424C51.7889 8.07021 52.2311 8.15809 52.6437 8.32893C53.0563 8.49977 53.4312 8.75022 53.7469 9.06598C54.0627 9.38174 54.3132 9.75662 54.484 10.1692C54.6548 10.5818 54.7427 11.024 54.7426 11.4705Z" fill="#E1E6E9"/>
<path d="M36.1632 22.056C38.6561 22.056 40.6771 20.0351 40.6771 17.5421C40.6771 15.0492 38.6561 13.0283 36.1632 13.0283C33.6703 13.0283 31.6494 15.0492 31.6494 17.5421C31.6494 20.0351 33.6703 22.056 36.1632 22.056Z" fill="#1388FF"/>
<path d="M39.4621 20.617C39.6574 20.1114 39.7569 19.5739 39.7554 19.0319C39.7572 18.1249 39.4854 17.2384 38.9756 16.4883C38.4657 15.7381 37.7415 15.1592 36.8975 14.8271C36.0535 14.4949 35.1289 14.4251 34.2446 14.6266C33.3602 14.8281 32.5572 15.2916 31.9404 15.9566C32.1745 15.3322 32.5441 14.7674 33.0227 14.303C33.5012 13.8386 34.0768 13.4861 34.7079 13.2708C35.339 13.0555 36.0101 12.9829 36.6727 13.0581C37.3352 13.1333 37.9729 13.3544 38.5398 13.7056C39.1066 14.0569 39.5886 14.5294 39.9509 15.0892C40.3132 15.6491 40.5468 16.2823 40.6351 16.9433C40.7233 17.6043 40.6638 18.2766 40.461 18.9118C40.2582 19.5471 39.9171 20.1295 39.4621 20.617Z" fill="#2E7CCB"/>
<path d="M41.223 1.41369H40.6785C40.5734 1.41369 40.4726 1.37193 40.3983 1.29761C40.324 1.22329 40.2822 1.12249 40.2822 1.01739C40.2822 0.912286 40.324 0.811486 40.3983 0.737166C40.4726 0.662846 40.5734 0.621094 40.6785 0.621094H41.2238C41.3289 0.621094 41.4297 0.662846 41.5041 0.737166C41.5784 0.811486 41.6201 0.912286 41.6201 1.01739C41.6201 1.12249 41.5784 1.22329 41.5041 1.29761C41.4297 1.37193 41.3289 1.41369 41.2238 1.41369H41.223Z" fill="#323C6B"/>
<path d="M49.6165 4.40475C49.5458 4.40475 49.4764 4.38587 49.4156 4.35005C49.3547 4.31424 49.3044 4.2628 49.2701 4.20105C48.8071 3.36092 48.1283 2.65957 47.3038 2.1694C46.4792 1.67923 45.5388 1.41801 44.5795 1.41271H43.1307C43.0256 1.41271 42.9248 1.37096 42.8504 1.29664C42.7761 1.22232 42.7344 1.12152 42.7344 1.01641C42.7344 0.911309 42.7761 0.81051 42.8504 0.73619C42.9248 0.66187 43.0256 0.620117 43.1307 0.620117H44.5795C45.68 0.625338 46.7591 0.924204 47.7055 1.48586C48.6518 2.04751 49.4311 2.85159 49.9628 3.81506C49.9964 3.87539 50.0136 3.94343 50.0127 4.01245C50.0119 4.08147 49.9931 4.14907 49.9581 4.20857C49.9231 4.26807 49.8732 4.31739 49.8132 4.35166C49.7533 4.38593 49.6855 4.40396 49.6165 4.40396V4.40475Z" fill="#323C6B"/>
<path d="M20.5636 47.6197H20.035C19.9299 47.6197 19.8291 47.578 19.7547 47.5037C19.6804 47.4293 19.6387 47.3285 19.6387 47.2234C19.6387 47.1183 19.6804 47.0175 19.7547 46.9432C19.8291 46.8689 19.9299 46.8271 20.035 46.8271H20.5636C20.6687 46.8271 20.7695 46.8689 20.8439 46.9432C20.9182 47.0175 20.9599 47.1183 20.9599 47.2234C20.9599 47.3285 20.9182 47.4293 20.8439 47.5037C20.7695 47.578 20.6687 47.6197 20.5636 47.6197Z" fill="#323C6B"/>
<path d="M18.0208 47.6197H10.6893C10.5842 47.6197 10.4834 47.578 10.409 47.5037C10.3347 47.4293 10.293 47.3285 10.293 47.2234C10.293 47.1183 10.3347 47.0175 10.409 46.9432C10.4834 46.8689 10.5842 46.8271 10.6893 46.8271H18.0208C18.1259 46.8271 18.2267 46.8689 18.301 46.9432C18.3753 47.0175 18.4171 47.1183 18.4171 47.2234C18.4171 47.3285 18.3753 47.4293 18.301 47.5037C18.2267 47.578 18.1259 47.6197 18.0208 47.6197Z" fill="#323C6B"/>
<path d="M54.7438 37.9667C54.6844 37.9667 54.6259 37.9534 54.5724 37.9277C54.5189 37.9021 54.4718 37.8647 54.4347 37.8185L43.4969 24.2184L34.4534 34.3144C34.4161 34.358 34.3694 34.3926 34.3168 34.4155C34.2643 34.4385 34.2071 34.4491 34.1498 34.4468C34.0927 34.4457 34.0365 34.4322 33.985 34.4073C33.9336 34.3824 33.8881 34.3466 33.8518 34.3025L20.6488 18.2644L6.2656 34.6616C6.21246 34.7222 6.14208 34.7652 6.06387 34.7848C5.98566 34.8044 5.90333 34.7996 5.82788 34.7712C5.75243 34.7428 5.68744 34.692 5.6416 34.6257C5.59575 34.5594 5.57122 34.4806 5.57129 34.4V11.4711C5.57234 10.4653 5.97233 9.5011 6.68349 8.78994C7.39466 8.07878 8.3589 7.67878 9.36464 7.67773H51.3467C52.3525 7.67878 53.3167 8.07878 54.0279 8.78994C54.739 9.5011 55.139 10.4653 55.1401 11.4711V37.5704C55.1401 37.6755 55.0983 37.7763 55.024 37.8506C54.9497 37.9249 54.8489 37.9667 54.7438 37.9667ZM43.5151 23.2102H43.5254C43.5829 23.2118 43.6393 23.2259 43.6907 23.2515C43.7422 23.2771 43.7875 23.3136 43.8234 23.3584L54.3475 36.4449V11.4711C54.3466 10.6755 54.0302 9.91273 53.4677 9.35016C52.9051 8.78759 52.1423 8.47117 51.3467 8.47033H9.36464C8.56905 8.47117 7.80628 8.78759 7.24371 9.35016C6.68114 9.91273 6.36472 10.6755 6.36388 11.4711V33.3467L20.3603 17.3918C20.3982 17.3486 20.445 17.3141 20.4975 17.2908C20.5501 17.2675 20.607 17.2559 20.6645 17.2568C20.7219 17.2577 20.7785 17.2711 20.8303 17.2961C20.882 17.321 20.9277 17.3569 20.9642 17.4013L34.1696 33.4426L43.2203 23.3418C43.2574 23.3004 43.3029 23.2673 43.3537 23.2446C43.4045 23.2219 43.4595 23.2102 43.5151 23.2102Z" fill="#323C6B"/>
<path d="M51.3467 45.242H9.36464C8.36009 45.242 7.39656 44.8435 6.68541 44.134C5.97427 43.4245 5.5736 42.4619 5.57129 41.4573V34.4033C5.57121 34.307 5.60614 34.2141 5.66957 34.1417L20.3603 17.3918C20.3982 17.3486 20.445 17.3142 20.4975 17.2909C20.5501 17.2676 20.607 17.256 20.6645 17.2569C20.7219 17.2578 20.7785 17.2712 20.8303 17.2961C20.882 17.3211 20.9277 17.357 20.9642 17.4013L34.1696 33.4426L43.2203 23.3418C43.2579 23.2981 43.305 23.2634 43.358 23.2405C43.411 23.2176 43.4685 23.207 43.5262 23.2095C43.5837 23.2111 43.6401 23.2252 43.6915 23.2508C43.743 23.2764 43.7883 23.3128 43.8242 23.3577L55.0529 37.3216C55.1093 37.3919 55.1401 37.4795 55.1401 37.5697V41.4534C55.1388 42.4586 54.7386 43.4222 54.0274 44.1326C53.3161 44.843 52.352 45.242 51.3467 45.242ZM6.36388 34.5507V41.4573C6.36598 42.2517 6.68308 43.0129 7.24563 43.5738C7.80818 44.1347 8.57023 44.4496 9.36464 44.4494H51.3467C52.1411 44.4496 52.9032 44.1347 53.4657 43.5738C54.0283 43.0129 54.3454 42.2517 54.3475 41.4573V37.71L43.4993 24.2184L34.4534 34.3145C34.4161 34.3581 34.3694 34.3927 34.3168 34.4156C34.2643 34.4385 34.2071 34.4492 34.1498 34.4468C34.0927 34.4457 34.0365 34.4322 33.985 34.4073C33.9336 34.3824 33.8881 34.3467 33.8518 34.3026L20.6488 18.2645L6.36388 34.5507Z" fill="#323C6B"/>
<path d="M36.165 22.456C35.194 22.456 34.2449 22.1681 33.4375 21.6287C32.6301 21.0894 32.0008 20.3228 31.629 19.4258C31.2573 18.5288 31.1598 17.5418 31.3489 16.5894C31.5381 15.637 32.0053 14.7621 32.6916 14.0753C33.3779 13.3884 34.2524 12.9205 35.2047 12.7306C36.1569 12.5407 37.144 12.6373 38.0413 13.0084C38.9385 13.3794 39.7057 14.0081 40.2457 14.8151C40.7857 15.622 41.0743 16.5709 41.0751 17.5419C41.0751 18.8445 40.5579 20.0938 39.6372 21.0153C38.7165 21.9367 37.4676 22.4549 36.165 22.456ZM36.165 13.4291C35.3504 13.4291 34.5542 13.6707 33.8769 14.1234C33.1997 14.576 32.672 15.2194 32.3605 15.972C32.0489 16.7247 31.9677 17.5528 32.1269 18.3517C32.2862 19.1505 32.6788 19.8842 33.2552 20.4599C33.8315 21.0355 34.5656 21.4273 35.3646 21.5856C36.1637 21.744 36.9917 21.6618 37.744 21.3494C38.4963 21.037 39.139 20.5085 39.5909 19.8308C40.0428 19.153 40.2835 18.3565 40.2825 17.5419C40.2813 16.4503 39.847 15.4038 39.0751 14.632C38.3032 13.8603 37.2566 13.4262 36.165 13.4252V13.4291Z" fill="#323C6B"/>
<path d="M26.6854 29.2265C26.5681 29.3195 26.4188 29.3621 26.2702 29.345C26.1216 29.3279 25.9858 29.2525 25.8928 29.1353L21.6128 23.7378C21.5196 23.6206 21.4769 23.4712 21.4939 23.3225C21.5109 23.1738 21.5863 23.0379 21.7035 22.9448C21.8207 22.8517 21.9701 22.8089 22.1188 22.8259C22.2675 22.8429 22.4034 22.9183 22.4965 23.0355L26.7765 28.4331C26.8227 28.4912 26.8569 28.5577 26.8773 28.6291C26.8977 28.7004 26.9039 28.775 26.8954 28.8487C26.8869 28.9224 26.864 28.9937 26.828 29.0585C26.7919 29.1233 26.7435 29.1804 26.6854 29.2265Z" fill="white"/>
<path d="M28.0892 30.99C27.972 31.083 27.8227 31.1256 27.6741 31.1085C27.5254 31.0915 27.3897 31.016 27.2966 30.8989L27.1128 30.6675C27.0196 30.5503 26.9769 30.4009 26.9939 30.2522C27.0109 30.1035 27.0863 29.9676 27.2035 29.8745C27.3207 29.7813 27.4701 29.7386 27.6188 29.7556C27.7675 29.7726 27.9034 29.848 27.9965 29.9652L28.1804 30.1967C28.2265 30.2547 28.2608 30.3213 28.2812 30.3926C28.3016 30.4639 28.3077 30.5386 28.2993 30.6122C28.2908 30.6859 28.2679 30.7572 28.2319 30.8221C28.1958 30.8869 28.1473 30.944 28.0892 30.99Z" fill="white"/>
</svg>
