<svg width="21" height="21" viewBox="0 0 21 21" fill="none" xmlns="http://www.w3.org/2000/svg" stroke="#284E7F" stroke-linecap="round" stroke-linejoin="round">
  <path d="M19.8708 0.757812H1.07031V19.5583H19.8708V0.757812Z" />
  <path d="M11.6033 3.69385H9.03418V12.095H11.6033V3.69385Z" />
  <path d="M11.6033 14.6641H9.03418V16.6213H11.6033V14.6641Z" />
  <path d="M6.39725 8.9707H3.82812V16.6213H6.39725V8.9707Z" />
  <path d="M6.39725 3.69385H3.82812V6.40159H6.39725V3.69385Z" />
  <path d="M17.1136 3.69385H14.5444V8.0485H17.1136V3.69385Z" />
  <path d="M17.1136 10.6177H14.5444V16.6214H17.1136V10.6177Z" />
  <path d="M2.95264 6.40158V8.9707H7.26707V6.40158H2.95264Z" />
  <path d="M8.15723 12.0954V14.6646H12.4717V12.0954H8.15723Z" />
  <path d="M13.7739 8.04855V10.6177H18.0884V8.04855H13.7739Z" />
</svg>
