<svg width="15" height="13" viewBox="0 0 15 13" fill="none" xmlns="http://www.w3.org/2000/svg">
<path d="M0 4.25034C0 3.89136 0.291015 3.60034 0.65 3.60034H14.35C14.709 3.60034 15 3.89136 15 4.25034C15 4.60933 14.709 4.90034 14.35 4.90034H0.649999C0.291014 4.90034 0 4.60933 0 4.25034Z" fill="black"/>
<rect y="7.50024" width="15" height="1.3" rx="0.65" fill="black"/>
<rect y="11.3003" width="15" height="1.3" rx="0.65" fill="black"/>
<path d="M0 0.650244C0 0.291259 0.291015 0.000244141 0.65 0.000244141H14.35C14.709 0.000244141 15 0.291259 15 0.650244C15 1.00923 14.709 1.30024 14.35 1.30024H0.649999C0.291014 1.30024 0 1.00923 0 0.650244Z" fill="black"/>
</svg>
