<svg width="20" height="20" viewBox="0 0 20 20" fill="none" xmlns="http://www.w3.org/2000/svg">
<path fill-rule="evenodd" clip-rule="evenodd" d="M2.5 15.6243C2.5 15.4585 2.56585 15.2995 2.68306 15.1823C2.80027 15.0651 2.95924 14.9993 3.125 14.9993H11.875C12.0408 14.9993 12.1997 15.0651 12.3169 15.1823C12.4342 15.2995 12.5 15.4585 12.5 15.6243C12.5 15.79 12.4342 15.949 12.3169 16.0662C12.1997 16.1834 12.0408 16.2493 11.875 16.2493H3.125C2.95924 16.2493 2.80027 16.1834 2.68306 16.0662C2.56585 15.949 2.5 15.79 2.5 15.6243ZM2.5 11.8743C2.5 11.7085 2.56585 11.5495 2.68306 11.4323C2.80027 11.3151 2.95924 11.2493 3.125 11.2493H16.875C17.0408 11.2493 17.1997 11.3151 17.3169 11.4323C17.4342 11.5495 17.5 11.7085 17.5 11.8743C17.5 12.04 17.4342 12.199 17.3169 12.3162C17.1997 12.4334 17.0408 12.4993 16.875 12.4993H3.125C2.95924 12.4993 2.80027 12.4334 2.68306 12.3162C2.56585 12.199 2.5 12.04 2.5 11.8743ZM2.5 8.12427C2.5 7.95851 2.56585 7.79954 2.68306 7.68233C2.80027 7.56512 2.95924 7.49927 3.125 7.49927H11.875C12.0408 7.49927 12.1997 7.56512 12.3169 7.68233C12.4342 7.79954 12.5 7.95851 12.5 8.12427C12.5 8.29003 12.4342 8.449 12.3169 8.56621C12.1997 8.68342 12.0408 8.74927 11.875 8.74927H3.125C2.95924 8.74927 2.80027 8.68342 2.68306 8.56621C2.56585 8.449 2.5 8.29003 2.5 8.12427ZM2.5 4.37427C2.5 4.20851 2.56585 4.04954 2.68306 3.93233C2.80027 3.81512 2.95924 3.74927 3.125 3.74927H16.875C17.0408 3.74927 17.1997 3.81512 17.3169 3.93233C17.4342 4.04954 17.5 4.20851 17.5 4.37427C17.5 4.54003 17.4342 4.699 17.3169 4.81621C17.1997 4.93342 17.0408 4.99927 16.875 4.99927H3.125C2.95924 4.99927 2.80027 4.93342 2.68306 4.81621C2.56585 4.699 2.5 4.54003 2.5 4.37427Z" fill="black"/>
</svg>
