<svg width="20" height="20" viewBox="0 0 20 20" fill="none" xmlns="http://www.w3.org/2000/svg">
<path fill-rule="evenodd" clip-rule="evenodd" d="M5 15.6252C5 15.4595 5.06585 15.3005 5.18306 15.1833C5.30027 15.0661 5.45924 15.0002 5.625 15.0002H14.375C14.5408 15.0002 14.6997 15.0661 14.8169 15.1833C14.9342 15.3005 15 15.4595 15 15.6252C15 15.791 14.9342 15.95 14.8169 16.0672C14.6997 16.1844 14.5408 16.2502 14.375 16.2502H5.625C5.45924 16.2502 5.30027 16.1844 5.18306 16.0672C5.06585 15.95 5 15.791 5 15.6252ZM2.5 11.8752C2.5 11.7095 2.56585 11.5505 2.68306 11.4333C2.80027 11.3161 2.95924 11.2502 3.125 11.2502H16.875C17.0408 11.2502 17.1997 11.3161 17.3169 11.4333C17.4342 11.5505 17.5 11.7095 17.5 11.8752C17.5 12.041 17.4342 12.2 17.3169 12.3172C17.1997 12.4344 17.0408 12.5002 16.875 12.5002H3.125C2.95924 12.5002 2.80027 12.4344 2.68306 12.3172C2.56585 12.2 2.5 12.041 2.5 11.8752ZM5 8.12524C5 7.95948 5.06585 7.80051 5.18306 7.6833C5.30027 7.56609 5.45924 7.50024 5.625 7.50024H14.375C14.5408 7.50024 14.6997 7.56609 14.8169 7.6833C14.9342 7.80051 15 7.95948 15 8.12524C15 8.291 14.9342 8.44998 14.8169 8.56719C14.6997 8.6844 14.5408 8.75024 14.375 8.75024H5.625C5.45924 8.75024 5.30027 8.6844 5.18306 8.56719C5.06585 8.44998 5 8.291 5 8.12524ZM2.5 4.37524C2.5 4.20948 2.56585 4.05051 2.68306 3.9333C2.80027 3.81609 2.95924 3.75024 3.125 3.75024H16.875C17.0408 3.75024 17.1997 3.81609 17.3169 3.9333C17.4342 4.05051 17.5 4.20948 17.5 4.37524C17.5 4.541 17.4342 4.69998 17.3169 4.81719C17.1997 4.9344 17.0408 5.00024 16.875 5.00024H3.125C2.95924 5.00024 2.80027 4.9344 2.68306 4.81719C2.56585 4.69998 2.5 4.541 2.5 4.37524Z" fill="black"/>
</svg>
