<svg width="20" height="20" viewBox="0 0 20 20" fill="none" xmlns="http://www.w3.org/2000/svg">
<path fill-rule="evenodd" clip-rule="evenodd" d="M7.5 15.6252C7.5 15.4595 7.56585 15.3005 7.68306 15.1833C7.80027 15.0661 7.95924 15.0002 8.125 15.0002H16.875C17.0408 15.0002 17.1997 15.0661 17.3169 15.1833C17.4342 15.3005 17.5 15.4595 17.5 15.6252C17.5 15.791 17.4342 15.95 17.3169 16.0672C17.1997 16.1844 17.0408 16.2502 16.875 16.2502H8.125C7.95924 16.2502 7.80027 16.1844 7.68306 16.0672C7.56585 15.95 7.5 15.791 7.5 15.6252ZM2.5 11.8752C2.5 11.7095 2.56585 11.5505 2.68306 11.4333C2.80027 11.3161 2.95924 11.2502 3.125 11.2502H16.875C17.0408 11.2502 17.1997 11.3161 17.3169 11.4333C17.4342 11.5505 17.5 11.7095 17.5 11.8752C17.5 12.041 17.4342 12.2 17.3169 12.3172C17.1997 12.4344 17.0408 12.5002 16.875 12.5002H3.125C2.95924 12.5002 2.80027 12.4344 2.68306 12.3172C2.56585 12.2 2.5 12.041 2.5 11.8752ZM7.5 8.12524C7.5 7.95948 7.56585 7.80051 7.68306 7.6833C7.80027 7.56609 7.95924 7.50024 8.125 7.50024H16.875C17.0408 7.50024 17.1997 7.56609 17.3169 7.6833C17.4342 7.80051 17.5 7.95948 17.5 8.12524C17.5 8.291 17.4342 8.44998 17.3169 8.56719C17.1997 8.6844 17.0408 8.75024 16.875 8.75024H8.125C7.95924 8.75024 7.80027 8.6844 7.68306 8.56719C7.56585 8.44998 7.5 8.291 7.5 8.12524ZM2.5 4.37524C2.5 4.20948 2.56585 4.05051 2.68306 3.9333C2.80027 3.81609 2.95924 3.75024 3.125 3.75024H16.875C17.0408 3.75024 17.1997 3.81609 17.3169 3.9333C17.4342 4.05051 17.5 4.20948 17.5 4.37524C17.5 4.541 17.4342 4.69998 17.3169 4.81719C17.1997 4.9344 17.0408 5.00024 16.875 5.00024H3.125C2.95924 5.00024 2.80027 4.9344 2.68306 4.81719C2.56585 4.69998 2.5 4.541 2.5 4.37524Z" fill="black"/>
</svg>
