<svg width="11" height="13" viewBox="0 0 11 13" fill="none" xmlns="http://www.w3.org/2000/svg">
<path d="M10.135 9.90605C10.135 10.5974 9.94801 11.1754 9.57401 11.6401C9.21134 12.0934 8.71834 12.4334 8.09501 12.6601C7.47167 12.8867 6.78601 13.0001 6.03801 13.0001H0.156006V0.930054H6.87101C7.43767 0.930054 7.92501 1.08305 8.33301 1.38905C8.75234 1.68372 9.06967 2.06905 9.28501 2.54505C9.51167 3.02105 9.62501 3.51405 9.62501 4.02405C9.62501 4.59072 9.47767 5.13472 9.18301 5.65605C8.88834 6.16605 8.45767 6.55139 7.89101 6.81205C8.58234 7.01605 9.12634 7.37872 9.52301 7.90005C9.93101 8.42139 10.135 9.09005 10.135 9.90605ZM7.29601 9.34505C7.29601 9.08439 7.24501 8.85772 7.14301 8.66505C7.04101 8.46105 6.90501 8.30239 6.73501 8.18905C6.57634 8.06439 6.38367 8.00205 6.15701 8.00205H2.94401V10.6371H6.03801C6.27601 10.6371 6.48567 10.5804 6.66701 10.4671C6.85967 10.3537 7.01267 10.2007 7.12601 10.0081C7.23934 9.81539 7.29601 9.59439 7.29601 9.34505ZM2.94401 3.31005V5.80905H5.68101C5.88501 5.80905 6.07201 5.76372 6.24201 5.67305C6.42334 5.58239 6.57067 5.44639 6.68401 5.26505C6.79734 5.07239 6.85401 4.83439 6.85401 4.55105C6.85401 4.27905 6.80301 4.05239 6.70101 3.87105C6.61034 3.68972 6.48567 3.55372 6.32701 3.46305C6.16834 3.36105 5.98701 3.31005 5.78301 3.31005H2.94401Z" fill="black"/>
</svg>
