<svg width="16" height="16" viewBox="0 0 16 16" fill="none" xmlns="http://www.w3.org/2000/svg">
<g clip-path="url(#clip0_1111_184)">
<path d="M8 14.999C6.14348 14.999 4.36301 14.2615 3.05025 12.9488C1.7375 11.636 1 9.85554 1 7.99902C1 6.14251 1.7375 4.36203 3.05025 3.04928C4.36301 1.73652 6.14348 0.999023 8 0.999023C9.85652 0.999023 11.637 1.73652 12.9497 3.04928C14.2625 4.36203 15 6.14251 15 7.99902C15 9.85554 14.2625 11.636 12.9497 12.9488C11.637 14.2615 9.85652 14.999 8 14.999ZM8 15.999C10.1217 15.999 12.1566 15.1562 13.6569 13.6559C15.1571 12.1556 16 10.1208 16 7.99902C16 5.87729 15.1571 3.84246 13.6569 2.34217C12.1566 0.841878 10.1217 -0.000976562 8 -0.000976562C5.87827 -0.000976562 3.84344 0.841878 2.34315 2.34217C0.842855 3.84246 0 5.87729 0 7.99902C0 10.1208 0.842855 12.1556 2.34315 13.6559C3.84344 15.1562 5.87827 15.999 8 15.999Z" fill="black"/>
<path d="M4.28499 9.56602C4.39983 9.49972 4.5363 9.48176 4.66439 9.51607C4.79248 9.55039 4.90168 9.63419 4.96799 9.74902C5.2751 10.2814 5.71704 10.7234 6.24932 11.0306C6.78159 11.3378 7.38542 11.4994 7.99999 11.499C8.61456 11.4994 9.21839 11.3378 9.75066 11.0306C10.2829 10.7234 10.7249 10.2814 11.032 9.74902C11.0646 9.6917 11.1082 9.64139 11.1603 9.60099C11.2124 9.56059 11.272 9.5309 11.3356 9.51362C11.3993 9.49634 11.4657 9.49182 11.5311 9.50032C11.5965 9.50882 11.6595 9.53017 11.7167 9.56314C11.7738 9.59611 11.8238 9.64005 11.8638 9.69243C11.9039 9.74481 11.9332 9.8046 11.95 9.86835C11.9669 9.9321 11.971 9.99855 11.962 10.0639C11.9531 10.1292 11.9313 10.1921 11.898 10.249C11.5031 10.9334 10.9349 11.5016 10.2506 11.8966C9.56636 12.2916 8.7901 12.4994 7.99999 12.499C7.20988 12.4994 6.43362 12.2916 5.74933 11.8966C5.06504 11.5016 4.49687 10.9334 4.10199 10.249C4.03569 10.1342 4.01772 9.99771 4.05204 9.86962C4.08636 9.74154 4.17015 9.63233 4.28499 9.56602ZM6.99999 6.49902C6.99999 7.32702 6.55199 7.99902 5.99999 7.99902C5.44799 7.99902 4.99999 7.32702 4.99999 6.49902C4.99999 5.67102 5.44799 4.99902 5.99999 4.99902C6.55199 4.99902 6.99999 5.67102 6.99999 6.49902ZM11 6.49902C11 7.32702 10.552 7.99902 9.99999 7.99902C9.44799 7.99902 8.99999 7.32702 8.99999 6.49902C8.99999 5.67102 9.44799 4.99902 9.99999 4.99902C10.552 4.99902 11 5.67102 11 6.49902Z" fill="black"/>
</g>
<defs>
<clipPath id="clip0_1111_184">
<rect width="16" height="16" fill="white" transform="translate(0 -0.000976562)"/>
</clipPath>
</defs>
</svg>
