<svg width="14" height="6" viewBox="0 0 14 6" fill="none" xmlns="http://www.w3.org/2000/svg">
<path d="M5.354 -0.000976562H3C2.20435 -0.000976551 1.44129 0.315094 0.87868 0.877703C0.31607 1.44031 0 2.20337 0 2.99902C0 3.79467 0.31607 4.55773 0.87868 5.12034C1.44129 5.68295 2.20435 5.99902 3 5.99902H6C6.48007 5.99928 6.9532 5.88431 7.37963 5.66379C7.80606 5.44326 8.17333 5.12362 8.45061 4.73172C8.72788 4.33981 8.90705 3.88708 8.97307 3.41157C9.03909 2.93606 8.99002 2.45164 8.83 1.99902H8C7.914 1.99902 7.83 2.00902 7.75 2.03002C7.91865 2.33453 8.0049 2.67778 8.00024 3.02584C7.99557 3.3739 7.90014 3.71471 7.72339 4.01458C7.54664 4.31446 7.29468 4.56301 6.99242 4.73566C6.69017 4.90832 6.34809 4.9991 6 4.99902H3C2.46957 4.99902 1.96086 4.78831 1.58579 4.41324C1.21071 4.03816 1 3.52946 1 2.99902C1 2.46859 1.21071 1.95988 1.58579 1.58481C1.96086 1.20974 2.46957 0.999023 3 0.999023H4.535C4.753 0.623023 5.03 0.285023 5.355 -0.000976562H5.354Z" fill="black"/>
<path d="M7.99999 -0.00097615C7.51991 -0.00122787 7.04679 0.113737 6.62036 0.33426C6.19393 0.554783 5.82665 0.874424 5.54938 1.26633C5.2721 1.65824 5.09293 2.11096 5.02691 2.58648C4.9609 3.06199 5.00996 3.54641 5.16999 3.99902H6.26799C6.09245 3.69499 6.00004 3.35011 6.00004 2.99904C6.00004 2.64797 6.09244 2.30308 6.26797 1.99905C6.4435 1.69501 6.69597 1.44253 7 1.26699C7.30404 1.09145 7.64892 0.999033 7.99999 0.999024H11C11.5304 0.999024 12.0391 1.20974 12.4142 1.58481C12.7893 1.95988 13 2.46859 13 2.99902C13 3.52946 12.7893 4.03816 12.4142 4.41324C12.0391 4.78831 11.5304 4.99902 11 4.99902H9.46499C9.24741 5.37443 8.9705 5.71213 8.64499 5.99902H11C11.394 5.99902 11.7841 5.92143 12.148 5.77066C12.512 5.6199 12.8427 5.39892 13.1213 5.12034C13.3999 4.84177 13.6209 4.51105 13.7716 4.14707C13.9224 3.7831 14 3.39299 14 2.99902C14 2.60506 13.9224 2.21495 13.7716 1.85097C13.6209 1.487 13.3999 1.15628 13.1213 0.877704C12.8427 0.599128 12.512 0.37815 12.148 0.227385C11.7841 0.0766214 11.394 -0.000976156 11 -0.00097615H7.99999Z" fill="black"/>
</svg>
