<svg width="16" height="15" viewBox="0 0 16 15" fill="none" xmlns="http://www.w3.org/2000/svg">
<path d="M1.788 3.604V4H0.26V3.604H0.828V2.208C0.804 2.24 0.766667 2.27333 0.716 2.308C0.665333 2.34267 0.608 2.376 0.544 2.408C0.482667 2.43733 0.42 2.46133 0.356 2.48C0.292 2.49867 0.233333 2.508 0.18 2.508V2.096C0.233333 2.096 0.294667 2.08 0.364 2.048C0.433333 2.016 0.501333 1.97867 0.568 1.936C0.637333 1.89067 0.696 1.848 0.744 1.808C0.792 1.76533 0.82 1.73467 0.828 1.716H1.28V3.604H1.788ZM2.12681 4V3.488H2.49081V4H2.12681ZM0.16 9C0.16 8.888 0.169333 8.78533 0.188 8.692C0.206667 8.596 0.238667 8.50533 0.284 8.42C0.332 8.33467 0.397333 8.25467 0.48 8.18C0.565333 8.10267 0.673333 8.02933 0.804 7.96C0.897333 7.90667 0.985333 7.86 1.068 7.82C1.15067 7.77733 1.224 7.736 1.288 7.696C1.352 7.65333 1.40133 7.608 1.436 7.56C1.47333 7.512 1.492 7.45733 1.492 7.396C1.492 7.33733 1.476 7.28267 1.444 7.232C1.412 7.18133 1.364 7.14133 1.3 7.112C1.236 7.08 1.15867 7.064 1.068 7.064C0.996 7.064 0.929333 7.07333 0.868 7.092C0.809333 7.11067 0.754667 7.136 0.704 7.168C0.656 7.19733 0.612 7.23067 0.572 7.268C0.532 7.30267 0.497333 7.33733 0.468 7.372L0.192 7.056C0.218667 7.024 0.26 6.988 0.316 6.948C0.374667 6.90533 0.444 6.864 0.524 6.824C0.606667 6.78133 0.7 6.74667 0.804 6.72C0.908 6.69067 1.02133 6.676 1.144 6.676C1.31733 6.676 1.46533 6.70533 1.588 6.764C1.71067 6.82 1.804 6.89867 1.868 7C1.93467 7.09867 1.968 7.21067 1.968 7.336C1.968 7.43467 1.948 7.52133 1.908 7.596C1.87067 7.67067 1.82133 7.73733 1.76 7.796C1.69867 7.852 1.63333 7.90133 1.564 7.944C1.49733 7.984 1.43467 8.02 1.376 8.052C1.272 8.10267 1.18133 8.14933 1.104 8.192C1.02933 8.23467 0.965333 8.27733 0.912 8.32C0.858667 8.36 0.814667 8.40267 0.78 8.448C0.745333 8.49067 0.716 8.54267 0.692 8.604H2.012V9H0.16ZM2.43931 9V8.488H2.80331V9H2.43931ZM1.476 13.056C1.588 13.0747 1.68533 13.1173 1.768 13.184C1.85333 13.248 1.91867 13.3307 1.964 13.432C2.00933 13.5307 2.032 13.6427 2.032 13.768C2.032 13.9333 1.99067 14.0773 1.908 14.2C1.828 14.3227 1.71333 14.4173 1.564 14.484C1.41467 14.5533 1.23867 14.588 1.036 14.588C0.833333 14.588 0.654667 14.552 0.5 14.48C0.345333 14.4107 0.221333 14.3093 0.128 14.176L0.396 13.872C0.46 13.968 0.542667 14.044 0.644 14.1C0.745333 14.1587 0.873333 14.188 1.028 14.188C1.20133 14.188 1.336 14.1507 1.432 14.076C1.528 14.0013 1.576 13.8893 1.576 13.74C1.576 13.5853 1.52267 13.464 1.416 13.376C1.312 13.288 1.15467 13.244 0.944 13.244H0.836V12.9H0.956C1.13467 12.9 1.272 12.8587 1.368 12.776C1.464 12.6907 1.512 12.584 1.512 12.456C1.512 12.3707 1.492 12.3013 1.452 12.248C1.41467 12.192 1.36133 12.1507 1.292 12.124C1.22267 12.0973 1.14267 12.084 1.052 12.084C0.916 12.084 0.796 12.1133 0.692 12.172C0.588 12.2307 0.505333 12.3147 0.444 12.424L0.168 12.124C0.221333 12.0387 0.294667 11.964 0.388 11.9C0.481333 11.836 0.588 11.7867 0.708 11.752C0.830667 11.7147 0.96 11.696 1.096 11.696C1.272 11.696 1.42667 11.7253 1.56 11.784C1.69333 11.8427 1.796 11.9253 1.868 12.032C1.94267 12.1387 1.98 12.264 1.98 12.408C1.98 12.512 1.96 12.6107 1.92 12.704C1.88 12.7947 1.82133 12.872 1.744 12.936C1.66667 12.9973 1.57733 13.0373 1.476 13.056ZM2.43931 14V13.488H2.80331V14H2.43931Z" fill="black"/>
<rect x="4" y="2.6001" width="12" height="1.1" rx="0.55" fill="black"/>
<rect x="4" y="7.6001" width="12" height="1.1" rx="0.55" fill="black"/>
<rect x="4" y="12.6001" width="12" height="1.1" rx="0.55" fill="black"/>
</svg>
