<svg width="15" height="10" viewBox="0 0 15 10" fill="none" xmlns="http://www.w3.org/2000/svg">
<path d="M1.30868 1.00001C1.14621 1.00001 1.01637 1.20488 1.01541 1.45935L1.00001 5.57171C0.998611 5.82618 1.13082 6.03282 1.29327 6.03102L4.07073 6.00023C4.31307 6.18445 3.97425 7.37636 3.0878 7.83553C2.33507 8.22543 3.05342 9.00271 3.01682 9.13452C4.25359 8.83124 4.71524 8.35244 5.03487 8.12184C5.54272 7.70705 6.33408 6.62373 6.53158 5.81754C6.56064 5.74622 6.55279 5.66293 6.55314 5.5717L6.56855 1.45934C6.56995 1.20487 6.43775 1 6.27526 1L1.30868 1.00001Z" stroke="black" stroke-linecap="round" stroke-linejoin="round"/>
<path d="M8.26829 1.00001C8.10582 1.00001 7.97598 1.20488 7.97502 1.45935L7.95962 5.57171C7.95822 5.82618 8.09043 6.03282 8.25288 6.03102L11.0303 6.00023C11.2727 6.18445 10.9339 7.37636 10.0474 7.83553C9.29468 8.22543 10.013 9.00271 9.97643 9.13452C11.2132 8.83124 11.6749 8.35244 11.9945 8.12184C12.5023 7.70705 13.2937 6.62373 13.4912 5.81754C13.5202 5.74622 13.5124 5.66293 13.5128 5.5717L13.5282 1.45934C13.5296 1.20487 13.3974 1 13.2349 1L8.26829 1.00001Z" stroke="black" stroke-linecap="round" stroke-linejoin="round"/>
</svg>
