<svg width="16" height="14" viewBox="0 0 16 14" fill="none" xmlns="http://www.w3.org/2000/svg">
<path fill-rule="evenodd" clip-rule="evenodd" d="M16 8H0V7H16V8Z" fill="black"/>
<path d="M9.56795 3.19097C9.39795 2.9983 9.19961 2.8283 8.97295 2.68097C8.74628 2.5223 8.49128 2.3863 8.20795 2.27297C7.92461 2.15964 7.61861 2.06897 7.28995 2.00097C6.97261 1.93297 6.63261 1.89897 6.26995 1.89897C5.21595 1.89897 4.43961 2.10297 3.94095 2.51097C3.45361 2.90764 3.20995 3.45164 3.20995 4.14297C3.20995 4.61897 3.32328 4.99297 3.54995 5.26497C3.78795 5.53697 4.15628 5.75797 4.65495 5.92797C5.15361 6.09797 5.78828 6.27364 6.55895 6.45497C7.42028 6.6363 8.16261 6.85164 8.78595 7.10097C9.40928 7.3503 9.89095 7.6903 10.2309 8.12097C10.5709 8.54031 10.7409 9.11264 10.7409 9.83797C10.7409 10.3933 10.6333 10.875 10.4179 11.283C10.2026 11.691 9.90228 12.031 9.51695 12.303C9.13161 12.575 8.67261 12.779 8.13995 12.915C7.60728 13.0396 7.02361 13.102 6.38895 13.102C5.76561 13.102 5.16495 13.0396 4.58695 12.915C4.02028 12.779 3.48195 12.5863 2.97195 12.337C2.46195 12.0763 1.98595 11.7476 1.54395 11.351L2.13895 10.382C2.35428 10.6086 2.60928 10.824 2.90395 11.028C3.20995 11.2206 3.54428 11.3963 3.90695 11.555C4.28095 11.7136 4.67761 11.8383 5.09695 11.929C5.52761 12.0083 5.96961 12.048 6.42295 12.048C7.38628 12.048 8.13428 11.8723 8.66695 11.521C9.21095 11.1696 9.48294 10.6483 9.48294 9.95697C9.48294 9.4583 9.34695 9.06164 9.07495 8.76697C8.80295 8.46097 8.39495 8.21164 7.85095 8.01897C7.30695 7.8263 6.63828 7.6393 5.84495 7.45797C5.00628 7.2653 4.29795 7.04997 3.71995 6.81197C3.14195 6.57397 2.70561 6.2623 2.41095 5.87697C2.12761 5.4803 1.98595 4.95897 1.98595 4.31297C1.98595 3.56497 2.16728 2.93597 2.52995 2.42597C2.90395 1.90464 3.41395 1.51364 4.05995 1.25297C4.70595 0.980971 5.44828 0.844971 6.28695 0.844971C6.81961 0.844971 7.31261 0.901638 7.76595 1.01497C8.23061 1.11697 8.65561 1.26997 9.04095 1.47397C9.43761 1.67797 9.80595 1.93297 10.1459 2.23897L9.56795 3.19097Z" fill="black"/>
</svg>
