<svg width="12" height="14" viewBox="0 0 12 14" fill="none" xmlns="http://www.w3.org/2000/svg">
<path d="M5.67 11.075C4.82 11.075 4.105 10.93 3.525 10.64C2.945 10.34 2.48 9.93998 2.13 9.43998C1.78 8.92998 1.525 8.35498 1.365 7.71498C1.205 7.07498 1.125 6.41498 1.125 5.73498V0.349976H2.475V5.73498C2.475 6.25498 2.525 6.76498 2.625 7.26498C2.735 7.75498 2.91 8.19498 3.15 8.58498C3.39 8.97498 3.715 9.28498 4.125 9.51498C4.535 9.74498 5.045 9.85998 5.655 9.85998C6.275 9.85998 6.79 9.74498 7.2 9.51498C7.61 9.27498 7.935 8.95998 8.175 8.56998C8.415 8.16998 8.585 7.72498 8.685 7.23498C8.795 6.74498 8.85 6.24498 8.85 5.73498V0.349976H10.2V5.73498C10.2 6.45498 10.115 7.13998 9.945 7.78998C9.785 8.42998 9.525 8.99498 9.165 9.48498C8.805 9.97498 8.335 10.365 7.755 10.655C7.185 10.935 6.49 11.075 5.67 11.075Z" fill="black"/>
<path d="M0 12.875H11.325V13.625H0V12.875Z" fill="black"/>
</svg>
