<svg width="50" height="50" viewBox="0 0 36 36" fill="none" xmlns="http://www.w3.org/2000/svg">
<path d="M12.2031 12.3594C10.6927 13.8698 9.9375 15.6927 9.9375 17.8281C9.9375 19.9635 10.6927 21.7865 12.2031 23.2969C13.7135 24.8073 15.5365 25.5625 17.6719 25.5625C19.8073 25.5625 21.6302 24.8073 23.1406 23.2969C24.651 21.7865 25.4062 19.9635 25.4062 17.8281C25.4062 15.6927 24.651 13.8698 23.1406 12.3594C21.6302 10.849 19.8073 10.0938 17.6719 10.0938C15.5365 10.0938 13.7135 10.849 12.2031 12.3594ZM9.25391 21.3828C8.77214 20.25 8.53125 19.0651 8.53125 17.8281C8.53125 16.5911 8.77214 15.4128 9.25391 14.293C9.73568 13.1602 10.3867 12.1836 11.207 11.3633C12.0273 10.543 12.9974 9.89193 14.1172 9.41016C15.25 8.92839 16.4349 8.6875 17.6719 8.6875C18.9089 8.6875 20.0872 8.92839 21.207 9.41016C22.3398 9.89193 23.3164 10.543 24.1367 11.3633C24.957 12.1836 25.6081 13.1602 26.0898 14.293C26.5716 15.4128 26.8125 16.5911 26.8125 17.8281C26.8125 19.0651 26.5716 20.25 26.0898 21.3828C25.6081 22.5026 24.957 23.4727 24.1367 24.293C23.3164 25.1133 22.3398 25.7643 21.207 26.2461C20.0872 26.7279 18.9089 26.9688 17.6719 26.9688C16.4349 26.9688 15.25 26.7279 14.1172 26.2461C12.9974 25.7643 12.0273 25.1133 11.207 24.293C10.3867 23.4727 9.73568 22.5026 9.25391 21.3828ZM8.53125 12.5352C7.59375 14.1497 7.125 15.9141 7.125 17.8281C7.125 19.7422 7.59375 21.5065 8.53125 23.1211C9.48177 24.7357 10.7643 26.0182 12.3789 26.9688C13.9935 27.9062 15.7578 28.375 17.6719 28.375C19.5859 28.375 21.3503 27.9062 22.9648 26.9688C24.5794 26.0182 25.8555 24.7357 26.793 23.1211C27.7435 21.5065 28.2188 19.7422 28.2188 17.8281C28.2188 15.9141 27.7435 14.1497 26.793 12.5352C25.8555 10.9206 24.5794 9.64453 22.9648 8.70703C21.3503 7.75651 19.5859 7.28125 17.6719 7.28125C15.7578 7.28125 13.9935 7.75651 12.3789 8.70703C10.7643 9.64453 9.48177 10.9206 8.53125 12.5352ZM7.32031 23.8242C6.2526 21.9883 5.71875 19.9896 5.71875 17.8281C5.71875 15.6667 6.2526 13.668 7.32031 11.832C8.38802 9.99609 9.83984 8.54427 11.6758 7.47656C13.5117 6.40885 15.5104 5.875 17.6719 5.875C19.8333 5.875 21.832 6.40885 23.668 7.47656C25.5039 8.54427 26.9557 9.99609 28.0234 11.832C29.0911 13.668 29.625 15.6667 29.625 17.8281C29.625 19.9896 29.0911 21.9883 28.0234 23.8242C26.9557 25.6602 25.5039 27.112 23.668 28.1797C21.832 29.2474 19.8333 29.7812 17.6719 29.7812C15.5104 29.7812 13.5117 29.2474 11.6758 28.1797C9.83984 27.112 8.38802 25.6602 7.32031 23.8242ZM5.36719 12.6328C4.66406 14.2865 4.3125 16.0182 4.3125 17.8281C4.3125 19.638 4.66406 21.3698 5.36719 23.0234C6.07031 24.6771 7.01432 26.1029 8.19922 27.3008C9.39714 28.4857 10.8229 29.4297 12.4766 30.1328C14.1302 30.8359 15.862 31.1875 17.6719 31.1875C19.4818 31.1875 21.2135 30.8359 22.8672 30.1328C24.5208 29.4297 25.9401 28.4857 27.125 27.3008C28.3229 26.1029 29.2734 24.6771 29.9766 23.0234C30.6797 21.3698 31.0312 19.638 31.0312 17.8281C31.0312 16.0182 30.6797 14.2865 29.9766 12.6328C29.2734 10.9792 28.3229 9.5599 27.125 8.375C25.9401 7.17708 24.5208 6.22656 22.8672 5.52344C21.2135 4.82031 19.4818 4.46875 17.6719 4.46875C15.862 4.46875 14.1302 4.82031 12.4766 5.52344C10.8229 6.22656 9.39714 7.17708 8.19922 8.375C7.01432 9.5599 6.07031 10.9792 5.36719 12.6328ZM4.87891 25.2305C3.5638 22.9648 2.90625 20.4974 2.90625 17.8281C2.90625 15.1589 3.5638 12.6914 4.87891 10.4258C6.20703 8.16016 8.00391 6.36979 10.2695 5.05469C12.5352 3.72656 15.0026 3.0625 17.6719 3.0625C20.3411 3.0625 22.8086 3.72656 25.0742 5.05469C27.3398 6.36979 29.1302 8.16016 30.4453 10.4258C31.7734 12.6914 32.4375 15.1589 32.4375 17.8281C32.4375 20.4974 31.7734 22.9648 30.4453 25.2305C29.1302 27.4961 27.3398 29.293 25.0742 30.6211C22.8086 31.9362 20.3411 32.5938 17.6719 32.5938C15.0026 32.5938 12.5352 31.9362 10.2695 30.6211C8.00391 29.293 6.20703 27.4961 4.87891 25.2305ZM2.76953 11.5586C1.92318 13.5508 1.5 15.6406 1.5 17.8281C1.5 20.0156 1.92318 22.112 2.76953 24.1172C3.62891 26.1094 4.78125 27.8281 6.22656 29.2734C7.67188 30.7188 9.39062 31.8711 11.3828 32.7305C13.388 33.5768 15.4844 34 17.6719 34C19.8594 34 21.9492 33.5768 23.9414 32.7305C25.9466 31.8711 27.6719 30.7188 29.1172 29.2734C30.5625 27.8281 31.7083 26.1094 32.5547 24.1172C33.4141 22.112 33.8438 20.0156 33.8438 17.8281C33.8438 15.6406 33.4141 13.5508 32.5547 11.5586C31.7083 9.55339 30.5625 7.82812 29.1172 6.38281C27.6719 4.9375 25.9466 3.79167 23.9414 2.94531C21.9492 2.08594 19.8594 1.65625 17.6719 1.65625C15.4844 1.65625 13.388 2.08594 11.3828 2.94531C9.39062 3.79167 7.67188 4.9375 6.22656 6.38281C4.78125 7.82812 3.62891 9.55339 2.76953 11.5586ZM1.48047 24.6641C0.55599 22.4896 0.09375 20.2109 0.09375 17.8281C0.09375 15.4453 0.55599 13.1732 1.48047 11.0117C2.41797 8.83724 3.66797 6.96875 5.23047 5.40625C6.80599 3.83073 8.67448 2.58073 10.8359 1.65625C13.0104 0.71875 15.2891 0.25 17.6719 0.25C20.0547 0.25 22.3268 0.71875 24.4883 1.65625C26.6628 2.58073 28.5312 3.83073 30.0938 5.40625C31.6693 6.96875 32.9193 8.83724 33.8438 11.0117C34.7812 13.1732 35.25 15.4453 35.25 17.8281C35.25 20.2109 34.7812 22.4896 33.8438 24.6641C32.9193 26.8255 31.6693 28.694 30.0938 30.2695C28.5312 31.832 26.6628 33.0755 24.4883 34C22.3268 34.9375 20.0547 35.4062 17.6719 35.4062C15.2891 35.4062 13.0104 34.9375 10.8359 34C8.67448 33.0755 6.80599 31.832 5.23047 30.2695C3.66797 28.694 2.41797 26.8255 1.48047 24.6641Z" fill="black" fill-opacity="0.7"/>
</svg>
