<svg width="35" height="35" viewBox="0 0 42 46" fill="none" xmlns="http://www.w3.org/2000/svg">
<path d="M21.0026 2.53558L24.7963 16.6254L24.876 16.9214H25.1825L37.6462 16.9214L27.5022 25.8153L27.3149 25.9795L27.3797 26.22L31.2161 40.4686L21.2663 31.745L21.0026 31.5138L20.7389 31.745L10.7891 40.4686L14.6255 26.22L14.6903 25.9795L14.503 25.8153L4.35896 16.9214L16.8226 16.9214H17.1292L17.2089 16.6254L21.0026 2.53558Z" fill="#F1F1F1" stroke="black" stroke-width="0.8"/>
<path d="M10.2237 1.18938L11.0555 4.27836L11.0654 4.31536H11.1037H13.8186L11.6146 6.24767L11.5912 6.2682L11.5993 6.29827L12.4364 9.40708L10.2567 7.49605L10.2237 7.46715L10.1908 7.49605L8.01111 9.40709L8.84816 6.29827L8.85626 6.2682L8.83285 6.24767L6.62891 4.31536H9.34375H9.38207L9.39203 4.27836L10.2237 1.18938Z" fill="#D9D9D9" stroke="black" stroke-width="0.1"/>
<path d="M37.6603 24.8388L38.492 27.9278L38.5019 27.9648H38.5403H41.2551L39.0512 29.8971L39.0277 29.9176L39.0358 29.9477L39.8729 33.0565L37.6932 31.1455L37.6603 31.1166L37.6273 31.1455L35.4476 33.0565L36.2847 29.9477L36.2928 29.9176L36.2694 29.8971L34.0654 27.9648H36.7803H36.8186L36.8286 27.9278L37.6603 24.8388Z" fill="#D9D9D9" stroke="black" stroke-width="0.1"/>
<path d="M33.7408 1.18938L34.5725 4.27836L34.5825 4.31536H34.6208H37.3357L35.1317 6.24767L35.1083 6.2682L35.1164 6.29827L35.9535 9.40708L33.7738 7.49605L33.7408 7.46715L33.7079 7.49605L31.5282 9.40709L32.3653 6.29827L32.3733 6.2682L32.3499 6.24767L30.146 4.31536H32.8608H32.8992L32.9091 4.27836L33.7408 1.18938Z" fill="#D9D9D9" stroke="black" stroke-width="0.1"/>
<path d="M4.34435 24.8388L5.17606 27.9278L5.18602 27.9648H5.22434H7.93918L5.73524 29.8971L5.71183 29.9176L5.71992 29.9477L6.55697 33.0565L4.37731 31.1455L4.34435 31.1166L4.31138 31.1455L2.13172 33.0565L2.96877 29.9477L2.97687 29.9176L2.95345 29.8971L0.749512 27.9648H3.46435H3.50267L3.51263 27.9278L4.34435 24.8388Z" fill="#D9D9D9" stroke="black" stroke-width="0.1"/>
</svg>
