<svg width="50" height="35" viewBox="0 0 50 55" fill="none" xmlns="http://www.w3.org/2000/svg">
<path d="M1.16016 8.21581C1.16016 4.07368 4.51802 0.71582 8.66016 0.71582H41.6544C45.7965 0.71582 49.1544 4.07368 49.1544 8.21582V46.9602C49.1544 51.1023 45.7965 54.4601 41.6544 54.4601H8.66015C4.51802 54.4601 1.16016 51.1023 1.16016 46.9601V8.21581Z" fill="#C4C4C4" fill-opacity="0.06" stroke="black"/>
<path d="M16.3361 20.2985C16.3361 22.802 14.5315 24.7345 12.4186 24.7345C10.3058 24.7345 8.50109 22.802 8.50109 20.2985C8.50109 17.795 10.3058 15.8625 12.4186 15.8625C14.5315 15.8625 16.3361 17.795 16.3361 20.2985Z" fill="#D9D9D9" stroke="black"/>
<line y1="-0.5" x2="26.2978" y2="-0.5" transform="matrix(0.521656 -0.853156 0.794864 0.606788 8.49902 48.9287)" stroke="black"/>
<path d="M20.2577 26.5215L44.2996 45.135" stroke="black"/>
</svg>
