<svg width="19" height="19" viewBox="0 0 19 19" fill="none" xmlns="http://www.w3.org/2000/svg" fill="#284E7F">
  <path d="M18.2831 7.37741C18.5218 7.13881 18.5218 6.75187 18.2831 6.51322L17.3661 5.59616C17.1587 5.38876 16.833 5.358 16.5905 5.52283L14.6622 6.83339L15.9649 4.89211C16.1275 4.64967 16.096 4.32596 15.8895 4.11954L13.9002 2.13027C13.7166 1.94662 13.4369 1.89908 13.203 2.01181L12.8591 2.17741L13.0238 1.81198C13.1282 1.58038 13.0784 1.30841 12.8988 1.12875L12.2743 0.504394C12.0357 0.265788 11.6488 0.265788 11.4102 0.504394L6.55981 5.3547L13.4328 12.2277L18.2831 7.37741Z" />
  <path d="M5.65674 6.25793L4.25264 7.66203C4.13804 7.77663 4.07364 7.93205 4.07364 8.09411C4.07364 8.25617 4.138 8.41162 4.25264 8.52618L5.58455 9.85809C5.84116 10.1147 5.96562 10.4688 5.92602 10.8297C5.88647 11.1902 5.68799 11.5091 5.38151 11.7044C1.46783 14.1992 1.10301 14.5641 0.98316 14.684C0.122801 15.5443 0.122801 16.9441 0.98316 17.8045C1.84438 18.6657 3.24432 18.664 4.10374 17.8045C4.22368 17.6846 4.58861 17.3197 7.0832 13.4062C7.2781 13.1004 7.5968 12.9024 7.95754 12.8628C8.31942 12.8233 8.67352 12.9471 8.92952 13.2031L10.2614 14.535C10.5 14.7736 10.887 14.7736 11.1256 14.535L12.5298 13.1309L5.65674 6.25793ZM3.19164 16.8175C2.85433 17.1548 2.30745 17.1548 1.97018 16.8175C1.63286 16.4802 1.63286 15.9333 1.97018 15.596C2.30749 15.2587 2.85437 15.2587 3.19164 15.596C3.52896 15.9333 3.52896 16.4802 3.19164 16.8175Z" />
</svg>
