<svg width="16" height="14" viewBox="0 0 16 14" fill="none" xmlns="http://www.w3.org/2000/svg">
<path fill-rule="evenodd" clip-rule="evenodd" d="M3 12.625C3 12.4592 3.06585 12.3003 3.18306 12.1831C3.30027 12.0658 3.45924 12 3.625 12H12.375C12.5408 12 12.6997 12.0658 12.8169 12.1831C12.9342 12.3003 13 12.4592 13 12.625C13 12.7908 12.9342 12.9497 12.8169 13.0669C12.6997 13.1842 12.5408 13.25 12.375 13.25H3.625C3.45924 13.25 3.30027 13.1842 3.18306 13.0669C3.06585 12.9497 3 12.7908 3 12.625ZM0.5 8.875C0.5 8.70924 0.565848 8.55027 0.683058 8.43306C0.800269 8.31585 0.95924 8.25 1.125 8.25H14.875C15.0408 8.25 15.1997 8.31585 15.3169 8.43306C15.4342 8.55027 15.5 8.70924 15.5 8.875C15.5 9.04076 15.4342 9.19973 15.3169 9.31694C15.1997 9.43415 15.0408 9.5 14.875 9.5H1.125C0.95924 9.5 0.800269 9.43415 0.683058 9.31694C0.565848 9.19973 0.5 9.04076 0.5 8.875ZM3 5.125C3 4.95924 3.06585 4.80027 3.18306 4.68306C3.30027 4.56585 3.45924 4.5 3.625 4.5H12.375C12.5408 4.5 12.6997 4.56585 12.8169 4.68306C12.9342 4.80027 13 4.95924 13 5.125C13 5.29076 12.9342 5.44973 12.8169 5.56694C12.6997 5.68415 12.5408 5.75 12.375 5.75H3.625C3.45924 5.75 3.30027 5.68415 3.18306 5.56694C3.06585 5.44973 3 5.29076 3 5.125ZM0.5 1.375C0.5 1.20924 0.565848 1.05027 0.683058 0.933058C0.800269 0.815848 0.95924 0.75 1.125 0.75H14.875C15.0408 0.75 15.1997 0.815848 15.3169 0.933058C15.4342 1.05027 15.5 1.20924 15.5 1.375C15.5 1.54076 15.4342 1.69973 15.3169 1.81694C15.1997 1.93415 15.0408 2 14.875 2H1.125C0.95924 2 0.800269 1.93415 0.683058 1.81694C0.565848 1.69973 0.5 1.54076 0.5 1.375Z" fill="black"/>
</svg>
