<svg width="16" height="14" viewBox="0 0 16 14" fill="none" xmlns="http://www.w3.org/2000/svg">
<path fill-rule="evenodd" clip-rule="evenodd" d="M5.5 12.625C5.5 12.4592 5.56585 12.3003 5.68306 12.1831C5.80027 12.0658 5.95924 12 6.125 12H14.875C15.0408 12 15.1997 12.0658 15.3169 12.1831C15.4342 12.3003 15.5 12.4592 15.5 12.625C15.5 12.7908 15.4342 12.9497 15.3169 13.0669C15.1997 13.1842 15.0408 13.25 14.875 13.25H6.125C5.95924 13.25 5.80027 13.1842 5.68306 13.0669C5.56585 12.9497 5.5 12.7908 5.5 12.625ZM0.5 8.875C0.5 8.70924 0.565848 8.55027 0.683058 8.43306C0.800269 8.31585 0.95924 8.25 1.125 8.25H14.875C15.0408 8.25 15.1997 8.31585 15.3169 8.43306C15.4342 8.55027 15.5 8.70924 15.5 8.875C15.5 9.04076 15.4342 9.19973 15.3169 9.31694C15.1997 9.43415 15.0408 9.5 14.875 9.5H1.125C0.95924 9.5 0.800269 9.43415 0.683058 9.31694C0.565848 9.19973 0.5 9.04076 0.5 8.875ZM5.5 5.125C5.5 4.95924 5.56585 4.80027 5.68306 4.68306C5.80027 4.56585 5.95924 4.5 6.125 4.5H14.875C15.0408 4.5 15.1997 4.56585 15.3169 4.68306C15.4342 4.80027 15.5 4.95924 15.5 5.125C15.5 5.29076 15.4342 5.44973 15.3169 5.56694C15.1997 5.68415 15.0408 5.75 14.875 5.75H6.125C5.95924 5.75 5.80027 5.68415 5.68306 5.56694C5.56585 5.44973 5.5 5.29076 5.5 5.125ZM0.5 1.375C0.5 1.20924 0.565848 1.05027 0.683058 0.933058C0.800269 0.815848 0.95924 0.75 1.125 0.75H14.875C15.0408 0.75 15.1997 0.815848 15.3169 0.933058C15.4342 1.05027 15.5 1.20924 15.5 1.375C15.5 1.54076 15.4342 1.69973 15.3169 1.81694C15.1997 1.93415 15.0408 2 14.875 2H1.125C0.95924 2 0.800269 1.93415 0.683058 1.81694C0.565848 1.69973 0.5 1.54076 0.5 1.375Z" fill="black"/>
</svg>
