<svg width="15" height="13" viewBox="0 0 15 13" fill="none" xmlns="http://www.w3.org/2000/svg">
<path fill-rule="evenodd" clip-rule="evenodd" d="M0 11.875C0 11.7092 0.0658481 11.5503 0.183058 11.4331C0.300269 11.3158 0.45924 11.25 0.625 11.25H9.375C9.54076 11.25 9.69973 11.3158 9.81694 11.4331C9.93415 11.5503 10 11.7092 10 11.875C10 12.0408 9.93415 12.1997 9.81694 12.3169C9.69973 12.4342 9.54076 12.5 9.375 12.5H0.625C0.45924 12.5 0.300269 12.4342 0.183058 12.3169C0.0658481 12.1997 0 12.0408 0 11.875ZM0 8.125C0 7.95924 0.0658481 7.80027 0.183058 7.68306C0.300269 7.56585 0.45924 7.5 0.625 7.5H14.375C14.5408 7.5 14.6997 7.56585 14.8169 7.68306C14.9342 7.80027 15 7.95924 15 8.125C15 8.29076 14.9342 8.44973 14.8169 8.56694C14.6997 8.68415 14.5408 8.75 14.375 8.75H0.625C0.45924 8.75 0.300269 8.68415 0.183058 8.56694C0.0658481 8.44973 0 8.29076 0 8.125ZM0 4.375C0 4.20924 0.0658481 4.05027 0.183058 3.93306C0.300269 3.81585 0.45924 3.75 0.625 3.75H9.375C9.54076 3.75 9.69973 3.81585 9.81694 3.93306C9.93415 4.05027 10 4.20924 10 4.375C10 4.54076 9.93415 4.69973 9.81694 4.81694C9.69973 4.93415 9.54076 5 9.375 5H0.625C0.45924 5 0.300269 4.93415 0.183058 4.81694C0.0658481 4.69973 0 4.54076 0 4.375ZM0 0.625C0 0.45924 0.0658481 0.300269 0.183058 0.183058C0.300269 0.0658481 0.45924 0 0.625 0H14.375C14.5408 0 14.6997 0.0658481 14.8169 0.183058C14.9342 0.300269 15 0.45924 15 0.625C15 0.79076 14.9342 0.949731 14.8169 1.06694C14.6997 1.18415 14.5408 1.25 14.375 1.25H0.625C0.45924 1.25 0.300269 1.18415 0.183058 1.06694C0.0658481 0.949731 0 0.79076 0 0.625Z" fill="black"/>
</svg>
