<?xml version="1.0" encoding="UTF-8"?>
<svg width="700pt" height="700pt" version="1.1" viewBox="0 0 700 700" xmlns="http://www.w3.org/2000/svg">
 <path d="m436.8 190.29c11.871 66.305-49.84 91.613-108.98 53.086-83.777-54.543-152.54-42.223-163.75 10.863-1.1172 8.4023-1.7891 17.027-1.7891 25.762 0 103.71 84 187.82 187.71 187.82 48.16 0 91.953-18.145 125.21-47.938-10.078 6.9453-21.84 12.543-35.168 16.801-82.766 26.207-169.12-20.16-177.18-65.07-11.871-66.305 49.84-91.617 109.09-52.977 84.336 54.879 153.44 42 163.97-11.871 1.2305-8.8477 1.9023-17.699 1.9023-26.77 0-103.71-84.113-187.82-187.82-187.82-51.633 0-98.449 20.945-132.38 54.656 11.648-8.9609 25.648-16.465 42-21.727 82.766-26.098 169.12 20.27 177.18 65.184z"/>
</svg>
