<?xml version="1.0" encoding="UTF-8"?>
<svg width="700pt" height="700pt" version="1.1" viewBox="0 0 700 700" xmlns="http://www.w3.org/2000/svg">
 <g>
  <path d="m336.56 293.44c0.11328 8.8477-3.4727 16.129-7.0547 19.711-32.48 32.367-79.406 7.168-100.91-25.312-7.2812-14.449-14.449-32.48-18.145-50.398-3.5859-28.895 7.168-54.098 14.336-78.398 5.1523-12.098 6.832-19.043 9.8555-26.098 2.3516-6.3828 6.1602-12.879 11.535-19.375 0 0-69.777 32.367-63.281 72.688 0.67188 4.4805 3.0234 10.078 6.832 16.688-7.9531 66.863 38.863 153.44 114.57 142.57 10.754-3.5859 21.617-3.5859 30.129-15.68 8.7383-11.426 8.8516-24.191 2.1289-36.398z"/>
  <path d="m347.43 299.71c25.312 31.359-14.336 63.84-43.121 67.426-14.449 0-28.895 3.6953-39.648 0-21.727-10.754-43.344-21.617-61.375-43.234-10.863-18.031-21.617-32.48-25.871-52.414-3.9219-13.887-7.0586-20.273-9.4102-27.777-2.2383-6.3828-3.5859-13.773-3.6953-22.176 0 0-32.48 69.664-1.457 96.32 3.3594 2.9102 8.8477 5.8242 17.809 14.449 40.656 56.449 141.57 88.816 184.8 16.801 3.5859-7.168 3.5859-14.449 4.8164-20.832-0.89844-14.113-9.4102-23.746-22.848-28.562z"/>
  <path d="m359.97 297.36c2.0156 1.2305 9.1836 1.2305 12.77 4.8164 36.062 28.785 10.754 72.129-18.031 93.742-25.199 14.449-54.098 18.031-82.879 14.449-21.73-3.582-39.652-10.75-56.898-22.062-12.098-8.2891-19.715-12.543-26.32-16.914-5.9375-3.3594-11.648-8.1758-17.137-14.559 0 0 20.047 74.145 61.039 74.703 4.4805 0 10.414-1.2305 23.742 0 69.664 11.426 163.41-24.641 152.54-107.52-3.582-7.2812-10.859-14.559-12.43-20.16-10.305-9.9688-23.07-11.758-36.398-6.4961z"/>
  <path d="m367.7 287.39c30.238-17.586 59.137 14.785 62.719 43.68 3.5859 36.066-14.445 68.547-43.23 93.746-10.863 10.863-25.312 14.449-39.648 21.617-10.754 3.5859-18.031 3.5859-29.121 5.2656-14.781 1.7891-24.191 3.1328-31.805 4.1406-6.7188 1.2305-14.113 1.2305-22.512-0.11328 0 0 63.055 43.793 94.754 17.809 3.3555-2.9102 7.0508-7.7266 18.027-15.457 64.398-33.152 107.63-123.43 46.367-181.11-7.2773-7.1641-14.445-10.75-22.957-8.0625-14.672-1.0078-25.875 6.0508-32.594 18.48z"/>
  <path d="m367.14 274.96c23.633-37.52 74.145-23.184 88.48 9.2969 7.168 14.449 18.031 25.312 18.031 39.648 3.6953 25.199-3.5859 46.816-10.863 72.129-3.4727 18.027-21.617 21.613-26.211 37.965-9.8555 10.641-15.344 17.473-20.719 23.297-4.3672 5.2656-10.078 10.078-17.246 14.449 0 0 76.496-7.168 83.887-47.488 0.78516-4.4805 0.44922-10.531 3.0234-22.625 24.191-56.113 9.7461-142.69-55.105-164.19-18.031-3.6992-36.062-10.867-49.168 2.6875-12.316 8.5117-16.688 21.055-14.109 34.832z"/>
  <path d="m358.85 266c-7.7266-39.426 35.504-61.039 67.984-53.871 21.617 7.168 43.23 18.031 57.68 36.062 10.863 14.449 18.031 28.785 21.617 43.23 7.168 18.031 14.449 36.062 9.6328 54.32-0.67188 14.223 0.22266 21.281-0.11328 29.23 0 6.7188-1.1211 14.113-3.9219 22.176 0 0 53.762-54.879 33.488-90.383-2.2383-3.9219-6.3828-8.1758-12.207-13.105-16.016-70.672-102.59-135.52-171.02-85.121-7.168 7.168-10.863 14.449-13.441 21.281-4.3672 14.453-0.22266 26.996 10.305 36.18z"/>
  <path d="m346.86 264.32c-28.223-19.711-10.191-63.055 11.426-77.391 18.031-14.449 39.648-21.617 61.375-18.035 17.922 3.5859 35.953 7.168 50.398 14.336 18.035 14.562 39.648 21.73 50.625 43.344 8.0625 10.078 13.441 14.895 18.258 21.168 4.3672 5.1523 8.1758 11.539 11.312 19.488 0 0 5.8242-76.609-32.703-90.832-4.1445-1.5664-10.078-2.1289-17.695-2.0156-51.41-30.688-127.12-41.551-170.36 8.8477-10.863 18.035-18.031 36.066-12.992 59.473 5.4883 13.891 16.578 21.059 30.352 21.617z"/>
  <path d="m336.45 270.59c-39.426-0.67188-53.871-47.602-35.84-76.496 10.863-14.336 18.031-32.367 32.48-43.23 14.449-10.863 32.48-18.031 50.512-21.617 21.617 0 43.344-3.5859 64.398 2.1289 11.871 2.2383 19.039 2.4648 26.77 4.1445 6.7188 1.1211 13.777 3.5859 21.168 7.6172 0 0-44.91-62.383-83.441-48.383-4.1445 1.4492-9.0703 4.9219-14.785 9.8516-68.207 6.6055-147.61 75.039-115.14 150.75 3.6953 7.168 10.863 14.449 17.246 17.922 12.883 7.168 25.766 5.5977 36.629-2.6875z"/>
  <path d="m332.41 282.13c-2.9102 5.7109-10.191 5.7109-17.359 9.2969-36.062 3.582-57.68-25.203-61.262-57.684-3.6953-28.781 3.582-54.094 18.031-79.293 14.449-21.617 36.062-36.062 58.352-49.504 10.527-6.0469 16.238-10.414 23.184-14 5.8242-3.4727 12.879-6.1602 21.055-7.8398 0 0-74.48-18.703-94.977 16.688-2.2383 4.0312-3.8047 9.7422-4.9258 17.246-53.199 48.273-64.062 152.77 8.0625 188.83 7.2812 3.5859 18.031 3.5859 24.414 2.2383 14.117-2.9102 22.629-12.43 25.426-25.98z"/>
 </g>
</svg>
