<?xml version="1.0" encoding="UTF-8"?>
<svg width="700pt" height="700pt" version="1.1" viewBox="0 0 700 700" xmlns="http://www.w3.org/2000/svg">
 <g>
  <path d="m487.31 207.76c-32.031 30.461-76.609 42.781-119.28 48.941-38.078 5.6016-77.84 7.9531-111.89 22.734-35.617 15.57-58.016 41.332-56.223 81.203 1.1211 23.969 14 47.375 32.145 65.406 5.0391 4.0312 10.191 7.8398 15.566 11.312-0.33594-0.67188-0.67187-1.457-1.2344-2.1289-21.613-29.68-38.414-114.69 74.707-133.17 22.734-3.6953 45.469-7.5039 68.094-12.656 19.938-4.5938 55.551-15.793 59.473-17.922 3.2461-1.9023-21.168 25.535-95.984 47.039-118.83 34.164-82.32 132.84-46.031 144.15 13.887 3.3594 28.449 5.0391 43.344 5.0391 103.71 0 187.82-84 187.82-187.71 0-37.297-10.863-72.016-29.566-101.14-5.043 10.977-12.098 20.383-20.945 28.898z"/>
  <path d="m162.29 280c0 20.609 3.3594 40.207 9.4062 58.801 2.2383-20.383 9.1836-39.648 22.176-56 23.52-29.902 60.031-43.902 98-51.406 37.855-7.3945 78.176-8.2891 117.04-17.699 21.504-5.1523 43.344-13.551 60.703-27.328 14.449-11.648 21.172-29.344 6.1641-45.809-5.4883-4.9258-11.312-9.6289-17.363-13.887 10.977 22.512 2.4648 56-86.574 64.734-22.848 2.3555-45.582 4.4805-68.098 7.6172-6.6055 0.89844-14.781 2.1289-23.184 3.5859 0 0 7.3906-9.1836 59.586-21.055 107.3-24.191 87.246-70.895 55.441-83.777-14.559-3.5859-29.902-5.6016-45.586-5.6016-103.71 0.11328-187.71 84.113-187.71 187.82z"/>
 </g>
</svg>
