<?xml version="1.0" encoding="UTF-8"?>
<svg width="700pt" height="700pt" version="1.1" viewBox="0 0 700 700" xmlns="http://www.w3.org/2000/svg">
 <g>
  <path d="m193.54 307.21c-8.3984 1.9062-16.465 3.1367-24.414 3.8086 0.89453 5.1523 2.2383 10.078 3.4727 15.121 15.117 4.9258 34.047 4.7031 55.551-0.89844 36.734-9.5195 75.262-33.039 108.41-66.191 33.152-33.152 56.672-71.793 66.191-108.41 5.4883-21.504 5.7109-40.434 0.89453-55.551-4.9258-1.3477-9.9648-2.5781-15.117-3.4727-0.67188 7.8398-1.9023 16.016-3.8086 24.414-9.6289 41.777-34.719 84.672-70.559 120.51-35.84 35.84-78.734 61.043-120.62 70.672z"/>
  <path d="m168.34 245.95c-1.457 9.4062-2.3516 18.816-2.4648 28.336 6.1602-0.44922 12.656-1.457 19.375-3.0234 35.168-8.1758 71.68-29.68 102.7-60.703 31.023-31.023 52.641-67.648 60.703-102.7 1.5664-6.7188 2.4648-13.215 3.0234-19.375-9.4062 0-18.93 0.89453-28.223 2.3516-9.9648 34.156-30.461 67.867-58.797 96.203-28.449 28.449-62.16 48.945-96.32 58.914z"/>
  <path d="m337.01 471.41c51.07 2.4648 103.04-15.789 142.02-54.766 38.977-39.09 57.344-90.945 54.77-142.13-15.344 40.32-42.895 81.535-79.184 117.71-36.066 36.176-77.281 63.84-117.6 79.184z"/>
  <path d="m281.46 102.7c-22.066 9.1836-42.672 22.738-60.594 40.656-17.922 17.922-31.359 38.527-40.543 60.594 20.945-9.5195 41.328-23.855 59.359-41.887 18.031-18.035 32.258-38.418 41.777-59.363z"/>
  <path d="m278.21 421.12c-11.758 3.582-23.07 5.8242-33.824 7.0547 16.242 10.863 41.891 12.098 72.242 3.0234 39.086-11.648 80.75-38.305 117.38-74.816 36.512-36.512 63.055-78.176 74.703-117.38 9.0703-30.465 7.8398-56.223-3.1367-72.352-5.5977 52.191-37.965 114.35-92.512 168.89-41.328 41.328-89.262 71.793-134.85 85.57z"/>
  <path d="m439.6 160.05c-11.09 43.234-38.195 87.922-76.051 125.89-37.969 37.855-82.656 64.961-125.89 76.16-17.023 4.3672-33.152 6.1602-48.047 5.375 3.0234 5.375 6.3828 10.641 9.8555 15.793 16.238 7.9531 39.762 7.9531 67.199-0.22266 39.426-11.871 81.426-38.754 118.16-75.602 36.961-36.848 63.727-78.848 75.602-118.27 8.2891-27.441 8.2891-50.961 0.33594-67.199-5.1523-3.5859-10.418-6.9453-15.793-9.9688 0.78516 14.895-1.0078 31.137-5.375 48.047z"/>
 </g>
</svg>
